<svg width="143" height="143" viewBox="0 0 143 143" fill="none" xmlns="http://www.w3.org/2000/svg">
<path d="M83.4168 71.4999L71.5001 83.4166L59.5834 71.4999L71.5001 59.5833L83.4168 71.4999ZM71.5001 35.75L84.1318 48.3816L99.0276 33.4858L71.5001 5.95833L43.9726 33.4858L58.8684 48.3816L71.5001 35.75ZM35.7501 71.4999L48.3818 58.8683L33.486 43.9725L5.9585 71.4999L33.486 99.0274L48.3818 84.1316L35.7501 71.4999ZM107.25 71.4999L94.6184 84.1316L109.514 99.0274L137.042 71.4999L109.514 43.9725L94.6184 58.8683L107.25 71.4999ZM71.5001 107.25L58.8684 94.6182L43.9726 109.514L71.5001 137.042L99.0276 109.514L84.1318 94.6182L71.5001 107.25Z" fill="#007FFF"/>
</svg>
