<svg width="256" height="256" viewBox="0 0 256 256" fill="none" xmlns="http://www.w3.org/2000/svg">
<g clip-path="url(#clip0_56_31)">
<path d="M196 0H60C26.8629 0 0 26.8629 0 60V196C0 229.137 26.8629 256 60 256H196C229.137 256 256 229.137 256 196V60C256 26.8629 229.137 0 196 0Z" fill="#00979C"/>
<path fill-rule="evenodd" clip-rule="evenodd" d="M19 136.512V120.095C19.344 119.924 19.344 119.582 19.344 119.24C24.507 96.838 38.62 83.328 60.994 78.026C62.887 77.513 64.952 77.684 66.846 77H77.86C78.032 77.342 78.549 77.171 78.893 77.171C89.908 78.368 99.89 82.301 108.667 89.142C116.24 94.785 122.092 101.968 127.427 109.663C128.115 110.689 128.46 110.689 129.148 109.663C132.246 105.217 135.516 100.942 139.302 97.009C148.424 87.261 159.439 80.42 172.863 78.026C174.756 77.513 176.993 77.684 178.887 77H189.557C189.729 77.342 190.074 77.171 190.418 77.171C193.688 77.513 196.786 78.197 199.884 79.052C222.946 85.722 239.296 106.756 237.919 130.527C236.886 150.536 226.732 164.901 209.005 173.964C200.228 178.753 190.59 179.95 180.608 179.779C167.528 179.608 156.169 175.161 146.359 166.611C139.474 160.625 134.139 153.443 129.148 145.918C128.46 144.892 128.115 145.063 127.427 146.089C124.329 150.707 121.059 155.324 117.273 159.77C110.561 167.295 102.816 173.451 93.178 176.701C81.302 180.805 69.255 180.976 57.208 177.727C39.825 172.767 27.95 161.822 21.41 145.063C20.377 142.327 19.86 139.249 19 136.512ZM73.73 161.651C83.54 161.993 91.973 158.744 99.201 152.075C106.602 145.234 111.937 136.683 117.273 128.304C117.445 127.791 117.445 127.449 117.101 126.936C112.626 119.924 107.979 112.913 101.783 107.098C89.908 95.811 75.967 92.049 60.306 97.008C47.398 101.284 39.136 110.347 37.243 124.028C35.35 136.854 40.341 147.115 50.667 154.811C57.552 159.77 65.297 161.822 73.73 161.651ZM182.845 161.651C186.631 161.651 190.418 161.48 194.032 160.454C207.628 156.35 216.578 147.97 219.16 133.947C221.741 120.095 216.406 108.979 204.703 101.113C191.795 92.22 173.035 93.075 159.955 102.823C151.178 109.321 145.326 118.043 139.474 127.107C139.13 127.62 139.302 127.962 139.474 128.475C144.121 135.828 148.768 143.182 154.792 149.509C162.364 157.547 171.486 162.164 182.845 161.651Z" fill="white"/>
<path fill-rule="evenodd" clip-rule="evenodd" d="M73.5581 122.831C79.0651 122.831 84.7451 123.002 90.2521 122.831C91.6291 122.831 91.8011 123.173 91.8011 124.541C91.6289 126.076 91.6289 127.624 91.8011 129.159C91.9731 130.527 91.6291 130.869 90.0801 130.869H68.0501C64.2641 130.869 60.4781 130.698 56.6911 130.869C55.4861 130.869 55.1421 130.527 55.1421 129.159C55.3141 127.62 55.3141 126.081 55.1421 124.37C55.1421 123.173 55.4861 122.831 56.6921 122.831C62.1991 123.002 67.8781 122.831 73.5581 122.831ZM181.985 111.886C183.361 111.886 184.738 112.057 185.943 111.886C186.804 111.886 187.148 112.228 187.148 113.083C186.976 115.478 187.148 117.872 186.976 120.266C186.976 121.463 187.32 121.805 188.525 121.805C190.762 121.634 193.172 121.805 195.581 121.634C196.614 121.634 196.958 121.805 196.958 123.002V130.869C196.958 131.724 196.614 132.066 195.753 132.066C193.344 131.895 190.934 132.066 188.353 131.895C187.32 131.895 186.976 132.237 186.976 133.263C187.148 135.657 186.976 138.051 187.148 140.446C187.148 141.472 186.804 141.985 185.771 141.985C183.192 141.814 180.605 141.814 178.026 141.985C176.994 141.985 176.649 141.643 176.649 140.617C176.821 138.051 176.649 135.657 176.821 133.092C176.821 132.237 176.477 131.895 175.617 131.895C173.207 132.066 170.798 131.895 168.388 132.066C167.011 132.066 166.839 131.553 166.839 130.527C166.839 128.133 167.011 125.738 166.839 123.344C166.667 121.976 167.356 121.634 168.56 121.634C170.97 121.805 173.207 121.634 175.617 121.805C176.477 121.805 176.821 121.463 176.821 120.608C176.649 118.214 176.821 115.649 176.649 113.255C176.649 112.228 176.994 111.886 178.026 111.886C179.403 112.057 180.608 111.886 181.985 111.886Z" fill="white"/>
</g>
<defs>
<clipPath id="clip0_56_31">
<rect width="256" height="256" fill="white"/>
</clipPath>
</defs>
</svg>
