<svg width="128" height="128" viewBox="0 0 128 128" fill="none" xmlns="http://www.w3.org/2000/svg">
<g clip-path="url(#clip0_56_45)">
<path d="M118.766 95.8199C119.656 94.2769 120.207 92.5399 120.207 90.9769V36.7799C120.207 35.2219 119.657 33.4829 118.766 31.9399L63.4458 63.8799L118.766 95.8199Z" fill="#00599C"/>
<path d="M68.3601 126.586L115.293 99.4919C116.645 98.7109 117.875 97.3629 118.766 95.8199L63.4461 63.8799L8.12012 95.8199C9.01012 97.3629 10.2411 98.7099 11.5931 99.4919L58.5261 126.586C61.2291 128.148 65.6561 128.148 68.3581 126.586H68.3601Z" fill="#004482"/>
<path d="M118.766 31.941C117.875 30.395 116.645 29.047 115.293 28.27L68.3592 1.17201C65.6562 -0.390994 61.2302 -0.390994 58.5272 1.17201L11.5942 28.27C8.89018 29.828 6.68018 33.66 6.68018 36.78V90.976C6.68018 92.538 7.23018 94.276 8.12118 95.819L63.4452 63.88L118.766 31.941Z" fill="#659AD2"/>
<path d="M63.4451 26.0349C42.5781 26.0349 25.6021 43.0119 25.6021 63.8789C25.6021 84.7459 42.5781 101.723 63.4451 101.723C76.9101 101.723 89.469 94.4759 96.215 82.8129L79.84 73.3349C76.46 79.1749 70.1801 82.7999 63.4451 82.7999C53.0121 82.7999 44.5231 74.3119 44.5231 63.8779C44.5231 53.4439 53.0131 44.9559 63.4451 44.9559C70.1751 44.9559 76.4621 48.5849 79.8351 54.4209L96.215 44.9439C89.465 33.2799 76.9101 26.0349 63.4451 26.0349ZM92.8801 57.5699V61.7769H88.673V65.9799H92.8801V70.1869H97.0831V65.9799H101.286V61.7769H97.0831V57.5699H92.8801ZM108.646 57.5699V61.7769H104.442V65.9799H108.646V70.1869H112.853V65.9799H117.056V61.7769H112.853V57.5699H108.646Z" fill="white"/>
</g>
<defs>
<clipPath id="clip0_56_45">
<rect width="128" height="128" fill="white"/>
</clipPath>
</defs>
</svg>
