<svg width="225" height="225" viewBox="0 0 225 225" fill="none" xmlns="http://www.w3.org/2000/svg">
<path d="M121.934 28.9575C120.29 28.9575 118.953 30.294 118.953 31.941C118.953 32.094 119.018 32.2268 119.041 32.3753H118.953V103.111C118.953 104.758 120.29 106.094 121.934 106.094H192.668V106.007C192.816 106.029 192.949 106.094 193.104 106.094C194.749 106.094 196.085 104.758 196.085 103.111C195.662 62.3408 162.704 29.3828 121.934 28.9575Z" fill="#007FFF"/>
<path d="M178.841 120.285C178.841 118.638 177.507 117.301 175.86 117.301H110.837C110.046 117.301 109.288 116.986 108.729 116.427C108.17 115.867 107.856 115.109 107.856 114.318V49.5337H107.768C107.791 49.3852 107.856 49.2525 107.856 49.0995C107.856 47.4502 106.519 46.116 104.872 46.116C104.8 46.116 104.742 46.152 104.672 46.1565V46.1362C104.407 46.134 104.143 46.116 103.878 46.116C62.4778 46.116 28.9146 79.6793 28.9146 121.079C28.9146 162.479 62.4778 196.042 103.878 196.042C145.278 196.042 178.841 162.479 178.841 121.079C178.841 120.841 178.83 120.604 178.825 120.364C178.825 120.334 178.841 120.312 178.841 120.285Z" fill="#007FFF"/>
</svg>
