<svg width="531" height="531" viewBox="0 0 531 531" fill="none" xmlns="http://www.w3.org/2000/svg">
<g clip-path="url(#clip0_44_9)">
<path d="M406.547 0H124.453C55.7196 0 0 55.7196 0 124.453V406.547C0 475.28 55.7196 531 124.453 531H406.547C475.28 531 531 475.28 531 406.547V124.453C531 55.7196 475.28 0 406.547 0Z" fill="#E14E1D"/>
<path d="M99.5625 78.8203L117.422 279.175H347.058L339.353 365.11L265.415 385.102L191.616 365.139L186.682 309.961H120.18L129.691 416.329L265.4 454.022L401.283 416.329L419.5 212.929H178.018L171.955 145.081H425.503L431.438 78.8203H99.5625Z" fill="white"/>
<path d="M265.5 78.8203H99.5625L117.422 279.175H265.5V212.929H178.018L171.955 145.081H265.5V78.8203ZM265.5 385.072L265.415 385.102L191.616 365.139L186.682 309.961H120.18L129.691 416.329L265.4 454.022L265.502 453.993V385.072H265.5Z" fill="#EBEBEB"/>
</g>
<defs>
<clipPath id="clip0_44_9">
<rect width="531" height="531" fill="white"/>
</clipPath>
</defs>
</svg>
