<svg width="139" height="139" viewBox="0 0 139 139" fill="none" xmlns="http://www.w3.org/2000/svg">
<path d="M17.436 65.052C19.8937 65.0907 22.2923 64.2978 24.2427 62.802C26.0462 61.2915 27.2799 59.2104 27.7394 56.9031C28.4617 52.6805 28.7731 48.3978 28.669 44.1151C28.7037 38.0773 28.8123 34.0999 28.9948 32.1829C29.188 29.6576 29.8017 27.1824 30.8104 24.8593C31.5791 23.1703 32.6968 21.6632 34.09 20.4374C35.559 19.25 37.2653 18.391 39.094 17.918C41.3014 17.4807 43.5517 17.2985 45.8007 17.375H48.8413V25.8888H47.1603C44.4949 25.5496 41.8036 26.2806 39.676 27.9216C38.1011 30.6739 37.4538 33.8601 37.8299 37.0088C37.9752 42.9995 37.7765 48.9936 37.2348 54.9615C36.8404 58.1647 35.6976 61.23 33.8988 63.9096C31.908 66.3318 29.3715 68.2476 26.4971 69.5C30.2015 70.9201 33.2723 73.6241 35.1498 77.119C37.2849 82.4451 38.2021 88.1812 37.8343 93.9075C37.8343 100.959 37.9067 105.158 38.0515 106.504C38.107 108.43 38.8892 110.262 40.2407 111.634C42.3341 112.839 44.7542 113.351 47.156 113.098H48.837V121.625H45.7964C43.1994 121.745 40.5999 121.452 38.0949 120.756C35.841 119.968 33.85 118.569 32.3438 116.717C30.7426 114.663 29.7211 112.218 29.3857 109.636C28.8331 104.975 28.5936 100.282 28.669 95.5886C28.7859 91.0721 28.4746 86.5547 27.7394 82.0969C27.2725 79.7889 26.0405 77.7059 24.2427 76.185C22.2992 74.6734 19.8979 73.8704 17.436 73.9089V65.052ZM121.564 73.8915C119.103 73.8531 116.701 74.656 114.758 76.1677C112.96 77.6885 111.728 79.7715 111.261 82.0795C110.528 86.5419 110.22 91.0637 110.34 95.5842C110.41 100.278 110.164 104.971 109.606 109.632C109.271 112.214 108.249 114.659 106.648 116.712C105.142 118.565 103.151 119.964 100.897 120.752C98.3918 121.447 95.7923 121.74 93.1954 121.621H90.1548V113.111H91.8358C94.2375 113.364 96.6577 112.852 98.751 111.647C100.111 110.271 100.897 108.43 100.949 106.496C101.094 105.158 101.166 100.959 101.166 93.8989C100.798 88.1725 101.716 82.4364 103.851 77.1103C105.73 73.6186 108.8 70.918 112.503 69.5C109.636 68.2465 107.105 66.3324 105.119 63.914C103.32 61.2344 102.177 58.169 101.783 54.9658C101.241 48.9979 101.043 43.0038 101.188 37.0131C101.564 33.8644 100.917 30.6783 99.3418 27.926C97.2142 26.285 94.523 25.554 91.8575 25.8931H90.1765V17.375H93.2171C95.4603 17.2998 97.7048 17.482 99.9065 17.918C101.731 18.394 103.433 19.2544 104.897 20.4417C106.291 21.6676 107.408 23.1746 108.177 24.8636C109.186 27.1867 109.799 29.662 109.993 32.1872C110.172 34.1042 110.281 38.0817 110.318 44.1195C110.211 48.4062 110.519 52.6933 111.239 56.9205C111.702 59.223 112.935 61.2991 114.736 62.8063C116.686 64.3021 119.085 65.095 121.543 65.0564L121.564 73.8915Z" fill="#F5DE19"/>
</svg>
