<svg width="256" height="222" viewBox="0 0 256 222" fill="none" xmlns="http://www.w3.org/2000/svg">
<g clip-path="url(#clip0_48_33)">
<path d="M215.771 151.107C216.853 150.486 217.752 149.591 218.378 148.513C219.005 147.434 219.337 146.21 219.341 144.963L219.469 103.81C219.473 102.563 219.805 101.338 220.431 100.26C221.058 99.181 221.957 98.2862 223.039 97.665L245.347 84.851C246.428 84.23 247.654 83.9041 248.9 83.9061C250.147 83.9081 251.372 84.2379 252.451 84.8624C253.53 85.4869 254.426 86.3842 255.049 87.4643C255.672 88.5443 256 89.7692 256 91.016V165.834C256 167.085 255.67 168.314 255.043 169.396C254.416 170.479 253.515 171.377 252.43 172L168.24 220.357C167.164 220.975 165.946 221.3 164.706 221.301C163.466 221.303 162.247 220.979 161.17 220.364L95.1 182.574C94.0115 181.952 93.1066 181.054 92.477 179.97C91.8475 178.887 91.5156 177.655 91.515 176.402V138.676C91.515 138.634 91.565 138.606 91.608 138.626C91.643 138.648 91.693 138.626 91.693 138.576V138.534C91.693 138.506 91.707 138.477 91.736 138.463L146.152 107.202C146.202 107.173 146.18 107.095 146.123 107.095C146.108 107.095 146.093 107.089 146.083 107.078C146.072 107.068 146.066 107.053 146.066 107.038L146.173 70.052C146.178 68.8013 145.853 67.5713 145.231 66.4862C144.609 65.4011 143.712 64.4993 142.63 63.8718C141.548 63.2442 140.32 62.9132 139.069 62.912C137.818 62.9108 136.589 63.2395 135.506 63.865L95.064 87.17C93.9847 87.7915 92.761 88.1187 91.5155 88.1187C90.27 88.1187 89.0464 87.7915 87.967 87.17L47.397 63.81C46.3162 63.1875 45.0907 62.8603 43.8434 62.8611C42.5961 62.8619 41.371 63.1907 40.291 63.8146C39.211 64.4385 38.3141 65.3355 37.6903 66.4156C37.0665 67.4956 36.7377 68.7207 36.737 69.968V136.814C36.7379 138.06 36.4115 139.284 35.7904 140.364C35.1693 141.444 34.2753 142.342 33.198 142.968C32.1207 143.594 30.8979 143.926 29.652 143.93C28.4061 143.935 27.1809 143.612 26.099 142.994L3.58401 130.12C2.49376 129.497 1.58785 128.597 0.958339 127.511C0.328833 126.424 -0.00181508 125.191 7.49408e-06 123.935L0.200007 7.095C0.203197 5.84983 0.533296 4.62731 1.15728 3.54976C1.78127 2.4722 2.67726 1.57739 3.75564 0.954825C4.83401 0.33226 6.05696 0.00377427 7.30215 0.00222643C8.54733 0.000678585 9.77109 0.326123 10.851 0.946005L87.974 45.24C89.0517 45.8589 90.2727 46.1846 91.5155 46.1846C92.7583 46.1846 93.9793 45.8589 95.057 45.24L172.157 0.944005C173.239 0.322661 174.465 -0.00321222 175.712 -0.000903343C176.96 0.00140554 178.184 0.331815 179.264 0.957159C180.343 1.5825 181.239 2.48077 181.861 3.5618C182.484 4.64283 182.811 5.86858 182.81 7.116V123.983C182.811 125.233 182.482 126.461 181.856 127.544C181.231 128.627 180.331 129.525 179.248 130.149L138.87 153.403C137.785 154.028 136.885 154.929 136.26 156.013C135.635 157.098 135.307 158.328 135.31 159.58C135.313 160.832 135.646 162.061 136.276 163.143C136.906 164.225 137.811 165.121 138.898 165.741L161.171 178.421C162.247 179.034 163.465 179.354 164.703 179.352C165.942 179.349 167.158 179.023 168.232 178.406L215.772 151.106L215.771 151.107ZM220.443 46.272C220.444 47.5297 220.778 48.7646 221.412 49.8509C222.046 50.9372 222.957 51.8359 224.051 52.4554C225.146 53.0748 226.385 53.393 227.643 53.3773C228.9 53.3616 230.131 53.0126 231.21 52.366L252.544 39.566C253.597 38.935 254.469 38.0421 255.075 36.9741C255.68 35.9062 255.999 34.6997 256 33.472V7.387C255.998 6.12991 255.662 4.89585 255.028 3.81057C254.394 2.7253 253.483 1.82759 252.389 1.20893C251.294 0.590262 250.056 0.272754 248.799 0.288753C247.542 0.304753 246.311 0.653688 245.233 1.3L223.9 14.1C222.847 14.731 221.974 15.624 221.369 16.6921C220.763 17.7603 220.444 18.967 220.443 20.195V46.279V46.272Z" fill="#007FFF"/>
</g>
<defs>
<clipPath id="clip0_48_33">
<rect width="256" height="222" fill="white"/>
</clipPath>
</defs>
</svg>
