<svg width="114" height="114" viewBox="0 0 114 114" fill="none" xmlns="http://www.w3.org/2000/svg">
<path d="M102.429 57.1283C103.345 57.1625 104.259 57.0115 105.116 56.6844C105.973 56.3573 106.755 55.8607 107.416 55.2244C108.076 54.588 108.602 53.825 108.96 52.981C109.319 52.1369 109.504 51.2292 109.504 50.312C109.504 49.3949 109.319 48.4871 108.96 47.6431C108.602 46.799 108.076 46.036 107.416 45.3997C106.755 44.7634 105.973 44.2668 105.116 43.9397C104.259 43.6125 103.345 43.4616 102.429 43.4958C102.282 43.4958 102.144 43.5243 101.992 43.5338L99.7023 34.5088C100.459 33.9406 101.089 33.2205 101.552 32.3946C102.014 31.5687 102.299 30.6553 102.387 29.713C102.476 28.7706 102.367 27.8202 102.067 26.9225C101.767 26.0249 101.282 25.1998 100.644 24.5004C100.007 23.8009 99.23 23.2424 98.3639 22.8607C97.4978 22.479 96.5614 22.2825 95.6149 22.2839C94.6684 22.2852 93.7327 22.4844 92.8676 22.8686C92.0026 23.2528 91.2274 23.8135 90.5918 24.5148L67.3643 13.718C67.607 13.0278 67.7353 12.3026 67.7443 11.571C67.7683 10.6605 67.6097 9.7543 67.2779 8.90601C66.946 8.05772 66.4476 7.28449 65.8121 6.63195C65.1765 5.97941 64.4167 5.46077 63.5775 5.10664C62.7382 4.75252 61.8366 4.57007 60.9257 4.57007C60.0148 4.57007 59.1131 4.75252 58.2739 5.10664C57.4346 5.46077 56.6748 5.97941 56.0393 6.63195C55.4037 7.28449 54.9053 8.05772 54.5735 8.90601C54.2416 9.7543 54.083 10.6605 54.1071 11.571C54.1187 11.8033 54.1425 12.0348 54.1783 12.2645L39.3868 16.8008C38.3654 15.5316 36.9218 14.6719 35.3193 14.3783C33.7168 14.0847 32.0622 14.3768 30.6572 15.2014C29.2521 16.026 28.1903 17.3282 27.6652 18.8704C27.1401 20.4126 27.1868 22.0921 27.7968 23.6028L13.8793 36.0288C12.8295 35.3859 11.6238 35.0426 10.3928 35.036C8.76341 35.0282 7.18538 35.606 5.94623 36.6641C4.70708 37.7222 3.88926 39.1902 3.64175 40.8007C3.39424 42.4112 3.73352 44.0571 4.59777 45.4385C5.46203 46.8198 6.79374 47.8447 8.35033 48.3265L7.42883 57.19C6.3901 57.334 5.39874 57.7163 4.53221 58.3069C3.66567 58.8975 2.94742 59.6804 2.43357 60.5946C1.91973 61.5087 1.62421 62.5293 1.5701 63.5766C1.51599 64.6238 1.70475 65.6694 2.12164 66.6317C2.53853 67.5939 3.17226 68.4467 3.97332 69.1235C4.77437 69.8002 5.72106 70.2826 6.73941 70.5329C7.75776 70.7832 8.82019 70.7947 9.84371 70.5664C10.8672 70.3382 11.8241 69.8763 12.6396 69.217L17.2281 71.2358L17.2138 71.3783C17.2206 73.0768 17.8618 74.7116 19.0116 75.9619C20.1615 77.2121 21.7369 77.9877 23.429 78.1364C25.1211 78.285 26.8077 77.7961 28.1579 76.7656C29.5082 75.735 30.4246 74.2371 30.7276 72.5658H35.9716C36.3831 74.0478 37.2855 75.3463 38.5311 76.2487C39.7767 77.1512 41.2917 77.6042 42.8282 77.5335C44.3647 77.4629 45.8318 76.8729 46.9894 75.86C48.1469 74.8471 48.9264 73.4713 49.2003 71.9578L63.9586 72.4423C65.0389 73.3743 66.3899 73.9351 67.8127 74.0419C69.2355 74.1488 70.6551 73.7962 71.8625 73.036C80.1939 77.5817 87.2211 84.187 92.2733 92.2213C91.9403 93.0306 91.7677 93.8969 91.765 94.772C91.7586 95.9377 92.0509 97.0855 92.6143 98.1061C93.1776 99.1266 93.9931 99.9858 94.9828 100.602C95.9726 101.217 97.1037 101.569 98.2681 101.623C99.4325 101.678 100.591 101.433 101.634 100.912C102.677 100.391 103.569 99.6113 104.225 98.6476C104.881 97.684 105.279 96.5683 105.381 95.4071C105.483 94.2459 105.286 93.0779 104.808 92.0146C104.33 90.9513 103.588 90.0281 102.652 89.3332C100.266 85.8612 98.5901 81.9513 97.7215 77.8288C98.891 77.4574 99.9371 76.7745 100.748 75.8534C101.558 74.9324 102.103 73.8079 102.322 72.6008C102.542 71.3936 102.429 70.1494 101.995 69.0018C101.561 67.8542 100.823 66.8464 99.859 66.0868L102.429 57.1283ZM105.113 50.312C105.112 50.8415 104.954 51.3588 104.659 51.7986C104.364 52.2384 103.946 52.5811 103.457 52.7833C102.967 52.9854 102.429 53.0381 101.91 52.9346C101.39 52.831 100.914 52.576 100.539 52.2016C100.165 51.8272 99.9098 51.3503 99.8062 50.8311C99.7027 50.3119 99.7554 49.7736 99.9576 49.2843C100.16 48.7949 100.502 48.3765 100.942 48.0817C101.382 47.787 101.899 47.6292 102.429 47.6283C103.141 47.6283 103.823 47.911 104.326 48.4143C104.83 48.9176 105.113 49.6003 105.113 50.312ZM99.6785 44.08C98.5657 44.5773 97.6066 45.3641 96.9015 46.3584C96.1963 47.3526 95.7709 48.5178 95.6695 49.7325H90.3448C90.2667 48.8045 89.9983 47.9024 89.5561 47.0827C89.114 46.263 88.5077 45.5433 87.775 44.9683L94.4583 35.7865C95.4817 35.993 96.5414 35.9275 97.5315 35.5965L99.6785 44.08ZM88.877 70.5233L75.1115 66.9988C75.0558 65.4626 74.4777 63.9915 73.4728 62.8283L79.0303 55.347C79.8833 56.1502 80.9365 56.7093 82.0796 56.9658C83.2228 57.2224 84.4139 57.1669 85.5283 56.8053L91.4753 65.9918C90.7642 66.5379 90.1684 67.2196 89.7225 67.9974C89.2765 68.7752 88.9891 69.6337 88.877 70.5233ZM39.1921 25.5788L58.5768 35.7248C58.1628 36.9291 58.1345 38.2325 58.4961 39.4535L46.0511 45.8518C45.4175 45.1144 44.6328 44.522 43.7501 44.1147C42.8674 43.7074 41.9074 43.4947 40.9353 43.491C40.8783 43.491 40.8261 43.5053 40.7691 43.51L36.2898 27.5025C37.4079 27.1243 38.4082 26.4613 39.1921 25.5788ZM92.1498 34.9315L85.6565 43.8425C84.5614 43.4642 83.3851 43.3844 82.2489 43.6115C81.1127 43.8386 80.0574 44.3643 79.1918 45.1345L71.6345 39.4345C71.8944 38.6215 71.9515 37.7572 71.8008 36.917L89.409 31.882C89.9909 33.1514 90.9473 34.2122 92.1498 34.922V34.9315ZM83.5808 52.991C83.0511 52.9901 82.5336 52.8322 82.0937 52.5372C81.6538 52.2423 81.3111 51.8236 81.1091 51.3339C80.9071 50.8443 80.8547 50.3058 80.9586 49.7865C81.0625 49.2671 81.318 48.7902 81.6929 48.416C82.0677 48.0418 82.5451 47.7871 83.0646 47.6842C83.5842 47.5812 84.1226 47.6345 84.6118 47.8374C85.1011 48.0403 85.5192 48.3837 85.8134 48.8241C86.1075 49.2646 86.2645 49.7824 86.2645 50.312C86.2633 51.023 85.98 51.7044 85.4768 52.2066C84.9736 52.7089 84.2917 52.991 83.5808 52.991ZM65.0605 40.4035C64.5311 40.4026 64.0138 40.2448 63.574 39.9501C63.1341 39.6553 62.7915 39.2369 62.5893 38.7475C62.3871 38.2582 62.3345 37.72 62.438 37.2007C62.5415 36.6815 62.7966 36.2046 63.171 35.8302C63.5453 35.4558 64.0223 35.2008 64.5415 35.0972C65.0607 34.9937 65.599 35.0464 66.0883 35.2486C66.5776 35.4507 66.9961 35.7934 67.2908 36.2332C67.5856 36.673 67.7434 37.1903 67.7443 37.7198C67.743 38.4307 67.4597 39.1121 66.9566 39.6144C66.4534 40.1167 65.7715 40.4035 65.0605 40.4035ZM40.9306 47.6283C41.4602 47.6283 41.978 47.7853 42.4184 48.0794C42.8589 48.3736 43.2023 48.7917 43.4052 49.281C43.6081 49.7702 43.6614 50.3086 43.5584 50.8282C43.4554 51.3477 43.2008 51.8251 42.8266 52.1999C42.4524 52.5748 41.9755 52.8303 41.4561 52.9342C40.9368 53.0381 40.3982 52.9857 39.9086 52.7837C39.419 52.5817 39.0003 52.239 38.7054 51.7991C38.4104 51.3592 38.2525 50.8417 38.2516 50.312C38.2516 49.6003 38.5343 48.9176 39.0376 48.4143C39.5409 47.911 40.2235 47.6283 40.9353 47.6283H40.9306ZM47.7516 50.312C47.7472 49.4812 47.5894 48.6583 47.2861 47.8848L59.4841 41.6148C60.1104 42.5151 60.945 43.2508 61.9167 43.7594C62.8884 44.268 63.9685 44.5344 65.0653 44.536L65.1793 44.5265L63.1178 61.9115L44.5643 64.258C44.1925 64.1397 43.811 64.0538 43.4243 64.0015L42.0136 57.019C43.6101 56.7633 45.0637 55.9483 46.1148 54.7197C47.1659 53.4911 47.746 51.9289 47.7516 50.312ZM42.5123 68.0438C43.0418 68.0447 43.5591 68.2025 43.9989 68.4972C44.4387 68.792 44.7814 69.2104 44.9835 69.6997C45.1857 70.1891 45.2384 70.7273 45.1348 71.2466C45.0313 71.7658 44.7763 72.2427 44.4019 72.6171C44.0275 72.9915 43.5506 73.2465 43.0314 73.35C42.5121 73.4536 41.9739 73.4009 41.4845 73.1987C40.9952 72.9966 40.5768 72.6539 40.282 72.2141C39.9873 71.7743 39.8295 71.257 39.8286 70.7275C39.8286 70.0157 40.1113 69.3331 40.6146 68.8298C41.1179 68.3265 41.8005 68.0438 42.5123 68.0438ZM47.6233 66.2625L62.1251 64.4338C61.719 65.3057 61.5066 66.2552 61.5025 67.217C61.4984 68.1789 61.7027 69.1302 62.1013 70.0055L49.2146 69.5875C49.0024 68.3532 48.4515 67.202 47.6233 66.2625ZM67.6351 44.023C68.836 43.5307 69.8722 42.707 70.6228 41.648L77.6813 46.968C77.1093 47.9357 76.7958 49.0342 76.7708 50.158C76.7459 51.2818 77.0103 52.3932 77.5388 53.3853L71.6345 61.3178C70.7297 60.7939 69.714 60.4907 68.6699 60.4329C67.6259 60.3752 66.583 60.5644 65.6258 60.9853L67.6351 44.023ZM95.6125 26.41C96.1424 26.41 96.6603 26.5672 97.1009 26.8615C97.5415 27.1559 97.8848 27.5743 98.0876 28.0638C98.2904 28.5534 98.3434 29.092 98.2401 29.6117C98.1367 30.1314 97.8815 30.6087 97.5069 30.9834C97.1322 31.358 96.6549 31.6132 96.1352 31.7166C95.6155 31.8199 95.0768 31.7669 94.5873 31.5641C94.0978 31.3613 93.6794 31.018 93.385 30.5774C93.0907 30.1369 92.9335 29.6189 92.9335 29.089C92.9348 28.3781 93.2181 27.6967 93.7213 27.1944C94.2244 26.6921 94.9016 26.41 95.6125 26.41ZM89.3045 26.5335C88.971 27.3443 88.7984 28.2123 88.7963 29.089C88.7963 29.2553 88.8343 29.412 88.8438 29.5783L71.1168 34.6418C70.5516 33.5204 69.6871 32.5772 68.6191 31.9166C67.5511 31.256 66.3211 30.9037 65.0653 30.8988C64.8611 30.8988 64.6616 30.9463 64.4621 30.9605L61.9873 18.278C63.66 18.0131 65.1731 17.132 66.229 15.808L89.3045 26.5335ZM60.9233 8.88255C61.453 8.88255 61.9707 9.03955 62.4112 9.33371C62.8516 9.62788 63.195 10.046 63.3979 10.5352C63.6008 11.0245 63.6542 11.5629 63.5512 12.0825C63.4482 12.602 63.1935 13.0794 62.8193 13.4542C62.4451 13.8291 61.9682 14.0846 61.4489 14.1885C60.9295 14.2924 60.391 14.24 59.9014 14.038C59.4118 13.8359 58.993 13.4933 58.6981 13.0534C58.4032 12.6134 58.2452 12.0959 58.2443 11.5663C58.2443 10.8553 58.5264 10.1734 59.0287 9.67028C59.5309 9.16711 60.2124 8.88381 60.9233 8.88255ZM54.8243 14.5445C55.2788 15.481 55.9413 16.3013 56.7613 16.9426C57.5812 17.5839 58.5369 18.0293 59.5553 18.2448L62.1583 31.5685C61.175 32.039 60.3184 32.7377 59.6598 33.6063L40.4461 23.5553C41.0556 22.0785 41.0945 20.4279 40.5553 18.924L54.8243 14.5445ZM34.1143 18.3825C34.644 18.3825 35.1617 18.5395 35.6022 18.8337C36.0426 19.1279 36.386 19.546 36.5889 20.0352C36.7918 20.5245 36.8452 21.0629 36.7422 21.5824C36.6392 22.102 36.3845 22.5793 36.0103 22.9542C35.6361 23.3291 35.1592 23.5846 34.6399 23.6885C34.1205 23.7924 33.582 23.74 33.0924 23.538C32.6028 23.3359 32.1841 22.9933 31.8891 22.5534C31.5942 22.1134 31.4363 21.5959 31.4353 21.0663C31.4353 20.3553 31.7174 19.6734 32.2197 19.1703C32.722 18.6671 33.4034 18.3838 34.1143 18.3825ZM33.9243 27.8635L38.4368 43.9755C37.1329 44.4914 36.0187 45.395 35.2448 46.5643L17.1996 41.9615L17.2138 41.8523C17.2059 40.2988 16.6623 38.7956 15.6748 37.5963L29.0888 25.631C29.7016 26.31 30.4455 26.8579 31.2758 27.2416C32.106 27.6253 33.0053 27.8368 33.9196 27.8635H33.9243ZM11.0958 63.9018C11.0958 64.4316 10.9387 64.9496 10.6443 65.3901C10.35 65.8307 9.93156 66.1741 9.44204 66.3768C8.95251 66.5796 8.41386 66.6327 7.89418 66.5293C7.37451 66.4259 6.89715 66.1708 6.52249 65.7961C6.14782 65.4214 5.89267 64.9441 5.7893 64.4244C5.68593 63.9047 5.73899 63.3661 5.94175 62.8766C6.14452 62.387 6.4879 61.9686 6.92845 61.6743C7.36901 61.3799 7.88697 61.2228 8.41683 61.2228C9.12696 61.224 9.80764 61.5067 10.3098 62.0088C10.8119 62.511 11.0946 63.1916 11.0958 63.9018ZM9.81333 57.228L10.7111 48.64C12.0284 48.5781 13.2993 48.1348 14.3694 47.364C15.4395 46.5933 16.2627 45.5283 16.7388 44.2985L34.3043 48.7778C34.0784 49.6734 34.0557 50.6082 34.2378 51.5138L13.6086 59.5413C12.6365 58.3675 11.2982 57.5545 9.80858 57.2328L9.81333 57.228ZM10.3928 39.1685C10.9225 39.1685 11.4402 39.3255 11.8807 39.6197C12.3212 39.9139 12.6645 40.332 12.8674 40.8212C13.0703 41.3105 13.1237 41.8489 13.0207 42.3684C12.9177 42.888 12.663 43.3653 12.2888 43.7402C11.9146 44.115 11.4377 44.3706 10.9184 44.4745C10.399 44.5784 9.86051 44.526 9.3709 44.324C8.8813 44.1219 8.46257 43.7793 8.16763 43.3394C7.87268 42.8994 7.71477 42.3819 7.71383 41.8523C7.71383 41.1413 7.99593 40.4594 8.4982 39.9563C9.00047 39.4531 9.68187 39.1698 10.3928 39.1685ZM14.2736 67.336C14.7936 66.4888 15.1128 65.5338 15.2067 64.5441C15.3005 63.5544 15.1666 62.5564 14.8151 61.6265L35.0786 53.7415C35.5373 54.525 36.148 55.2089 36.8748 55.753C37.6016 56.2971 38.4298 56.6904 39.3108 56.9098L30.4521 69.179C30.0083 67.8608 29.1702 66.7107 28.0513 65.8844C26.9324 65.0582 25.5866 64.5956 24.1961 64.5593C22.8057 64.523 21.4376 64.9148 20.2771 65.6816C19.1167 66.4484 18.2198 67.5532 17.7078 68.8465L14.2736 67.336ZM24.0301 74.0573C23.5006 74.0563 22.9833 73.8985 22.5435 73.6038C22.1037 73.3091 21.761 72.8906 21.5588 72.4013C21.3567 71.9119 21.304 71.3737 21.4075 70.8545C21.5111 70.3352 21.7661 69.8583 22.1405 69.4839C22.5149 69.1096 22.9918 68.8545 23.511 68.751C24.0302 68.6475 24.5685 68.7001 25.0578 68.9023C25.5472 69.1045 25.9656 69.4471 26.2603 69.8869C26.5551 70.3268 26.7129 70.8441 26.7138 71.3735C26.7138 72.0853 26.4311 72.7679 25.9278 73.2712C25.4245 73.7745 24.7418 74.0573 24.0301 74.0573ZM40.2133 58.3538L41.0636 64.0633C39.6369 64.3789 38.3495 65.145 37.3915 66.2483C36.4336 67.3517 35.8558 68.7339 35.7436 70.1908H32.4186L40.2133 58.3538ZM68.3143 69.92C67.7848 69.9191 67.2675 69.7613 66.8277 69.4665C66.3879 69.1718 66.0452 68.7534 65.8431 68.264C65.6409 67.7747 65.5882 67.2364 65.6918 66.7172C65.7953 66.198 66.0503 65.7211 66.4247 65.3467C66.7991 64.9723 67.276 64.7173 67.7952 64.6137C68.3145 64.5102 68.8527 64.5629 69.3421 64.765C69.8314 64.9672 70.2498 65.3099 70.5446 65.7497C70.8393 66.1895 70.9971 66.7068 70.998 67.2363C70.998 67.948 70.7153 68.6307 70.212 69.134C69.7087 69.6373 69.0261 69.92 68.3143 69.92ZM98.586 97.4462C98.0562 97.4462 97.5382 97.2891 97.0977 96.9948C96.6571 96.7004 96.3137 96.282 96.111 95.7925C95.9082 95.3029 95.8551 94.7643 95.9585 94.2446C96.0619 93.7249 96.317 93.2476 96.6917 92.8729C97.0664 92.4982 97.5437 92.2431 98.0634 92.1397C98.5831 92.0364 99.1217 92.0894 99.6112 92.2922C100.101 92.4949 100.519 92.8383 100.814 93.2789C101.108 93.7194 101.265 94.2374 101.265 94.7672C101.264 95.4774 100.981 96.1581 100.479 96.6602C99.9768 97.1623 99.2962 97.445 98.586 97.4462ZM98.586 87.9462C97.6805 87.9464 96.7841 88.1275 95.9497 88.4791C95.1152 88.8307 94.3594 89.3456 93.7268 89.9935C88.6697 82.2482 81.8072 75.847 73.7293 71.3403C74.1246 70.8219 74.443 70.2492 74.6745 69.6398L89.0338 73.074C89.4023 74.5008 90.2238 75.7695 91.375 76.6894C92.5262 77.6093 93.9449 78.1308 95.4178 78.1755C96.008 81.6544 97.2575 84.9885 99.099 87.9985C98.9233 87.9842 98.7618 87.951 98.586 87.951V87.9462ZM95.6125 74.0573C95.0829 74.0573 94.5651 73.9003 94.1247 73.6061C93.6842 73.3119 93.3408 72.8938 93.1379 72.4046C92.935 71.9153 92.8817 71.3769 92.9847 70.8574C93.0877 70.3378 93.3423 69.8605 93.7165 69.4856C94.0907 69.1107 94.5676 68.8552 95.087 68.7513C95.6063 68.6474 96.1448 68.6998 96.6345 68.9018C97.1241 69.1039 97.5428 69.4465 97.8377 69.8864C98.1327 70.3264 98.2906 70.8439 98.2915 71.3735C98.2915 72.0845 98.0094 72.7664 97.5072 73.2695C97.0049 73.7727 96.3235 74.056 95.6125 74.0573ZM97.7215 64.923C96.388 64.4403 94.9291 64.4303 93.589 64.8945L87.6563 55.7365C88.8569 54.834 89.7254 53.5598 90.1263 52.1123H95.888C96.1759 53.1514 96.7062 54.1074 97.4353 54.9017C98.1644 55.6961 99.0716 56.3061 100.082 56.6818L97.7215 64.923Z" fill="black"/>
</svg>
