<svg width="286" height="286" viewBox="0 0 286 286" fill="none" xmlns="http://www.w3.org/2000/svg">
<path d="M125.554 68.7204L84.0572 47.6101L38.5117 70.5169L81.1347 92.0831L125.554 68.7204ZM144.582 78.3908L188.09 100.52L142.946 123.364L100.261 101.762L144.582 78.3908ZM202.685 47.9318L247.381 70.5169L207.413 90.7424L163.807 68.5864L202.685 47.9318ZM183.451 38.1989L143.206 17.875L103.407 37.8861L144.868 58.9607L183.451 38.1989ZM151.991 212.793V268.125L200.736 243.618L200.683 188.259L151.991 212.793ZM200.665 168.946L200.611 114.168L151.991 138.522V193.318L200.665 168.946ZM259.188 158.676V214.223L217.61 235.128L217.583 179.84L259.188 158.676ZM259.188 139.255V84.8258L217.53 105.695L217.566 160.58L259.188 139.255Z" fill="#4DABCF"/>
<path d="M134.777 138.531L101.941 121.898V193.801C101.941 193.801 61.7849 107.697 58.0938 99.9659C57.3093 98.9553 56.2951 98.1464 55.1354 97.6064C47.9139 93.8437 26.8125 83.0293 26.8125 83.0293V210.031L56.0024 225.761V159.373C56.0024 159.373 95.7296 236.298 96.1317 237.13C98.1773 241.613 101.122 245.629 104.783 248.927C110.459 252.708 134.786 267.455 134.786 267.455L134.777 138.531Z" fill="#4D77CF"/>
</svg>
