<svg width="128" height="128" viewBox="0 0 128 128" fill="none" xmlns="http://www.w3.org/2000/svg">
<g clip-path="url(#clip0_46_28)">
<path d="M122.24 21.2479C120.901 17.1295 118.722 13.3338 115.84 10.1013C113.007 6.92803 109.545 4.37813 105.674 2.61327C101.869 0.889964 97.7398 -0.00146484 93.5624 -0.00146484C89.385 -0.00146484 85.2557 0.889964 81.4504 2.61327C73.8504 6.03727 67.8504 12.8106 65.1197 20.8159C64.4381 22.8216 63.9592 24.8907 63.6904 26.9919C63.4471 29.0571 63.3633 31.1379 63.4397 33.2159L63.5464 45.1999L63.7277 69.1786L63.7864 81.1679C63.7971 83.1679 63.7757 85.1679 63.8077 87.1626C63.8184 88.1546 63.8504 89.1786 63.8451 90.1492C63.8557 91.1092 63.7917 92.0692 63.7704 93.0346C63.6629 94.9732 63.4169 96.9016 63.0344 98.8052C62.6344 100.725 62.0264 102.592 61.2211 104.373C59.6269 107.971 57.3378 111.219 54.4851 113.931C48.7464 119.253 40.8904 122.16 33.1944 121.483C29.3202 121.213 25.5494 120.113 22.1384 118.256C18.6972 116.365 15.6918 113.772 13.3171 110.645C12.1116 109.081 11.0512 107.41 10.1491 105.653C9.23005 103.895 8.49376 102.047 7.95179 100.139C6.82676 96.3439 6.52313 92.3531 7.06112 88.4319C7.34379 86.5012 7.79179 84.5919 8.38379 82.7626C8.99712 80.9492 9.75979 79.1999 10.6665 77.5252C11.5358 75.8986 12.5651 74.3626 13.7278 72.9386C14.8215 71.5362 16.0744 70.2654 17.4611 69.1519C22.8318 64.6399 29.9571 62.6986 37.2318 62.6772C44.7624 62.6879 52.2984 62.8052 59.8344 62.7572L59.7811 54.5706C52.2718 54.7306 44.7678 55.2532 37.2744 55.8239C33.0692 56.1562 28.9478 57.1815 25.0771 58.8586C23.1387 59.6991 21.2819 60.7168 19.5304 61.8986C16.032 64.2157 13.0238 67.1986 10.6771 70.6772C9.49316 72.3992 8.47527 74.2296 7.63712 76.1439C5.88911 79.9691 4.77242 84.0522 4.33046 88.2346C3.90845 92.5383 4.18218 96.8819 5.14112 101.099C6.13846 105.392 7.90379 109.472 10.3465 113.141C12.8624 116.923 16.108 120.165 19.8931 122.677C23.7805 125.215 28.1673 126.888 32.7571 127.584C33.3331 127.691 33.9038 127.744 34.4744 127.803C35.0398 127.867 35.6104 127.931 36.2131 127.947C36.8104 127.984 37.4024 128.005 37.9998 128C40.9935 128 43.9717 127.569 46.8424 126.72C49.1539 126.048 51.3925 125.148 53.5251 124.032C55.6691 122.912 57.6851 121.525 59.5784 119.979C63.8413 116.345 67.238 111.804 69.5197 106.688C69.7864 106.112 70.0211 105.536 70.2451 104.944C70.711 103.779 71.1011 102.586 71.4131 101.371C72.0414 98.9469 72.4871 96.4795 72.7464 93.9892C72.8371 92.7465 72.9597 91.5092 72.9971 90.2719L73.0504 88.6612L73.1304 87.1679L73.4131 81.1679L73.6744 69.1786L74.1811 45.2052L74.4264 33.2159L74.4477 31.7119L74.4584 31.3546L74.4691 31.1039L74.4957 30.6026C74.6227 28.6245 75.0229 26.6735 75.6851 24.8053C76.5939 22.3465 77.9582 20.0812 79.7064 18.1279C81.4383 16.1938 83.552 14.6394 85.9144 13.5626C88.2666 12.5108 90.815 11.9691 93.3917 11.9733C95.9891 11.9253 98.5651 12.4373 100.944 13.4773C103.381 14.5439 105.568 16.0959 107.37 18.0533C109.184 20.0373 110.645 22.3839 111.584 24.9653C112.533 27.5893 112.954 30.3839 112.81 33.1733C112.691 35.999 112.005 38.7719 110.794 41.3279C109.587 43.9062 107.845 46.1982 105.684 48.0519C103.523 49.9056 100.993 51.2787 98.2611 52.0799C96.9004 52.4891 95.5009 52.7554 94.0851 52.8746L93.5517 52.9066C93.3597 52.9226 93.2317 52.9386 92.9651 52.9439L91.5197 52.9812L88.6237 53.0612L77.8504 53.3599L77.6531 62.7786L88.6237 62.9279L91.5197 62.9652L92.9597 62.9866L94.5064 62.9706C100.893 62.7678 107.044 60.5166 112.053 56.5492C115.423 53.8432 118.19 50.4624 120.176 46.6239C122.179 42.741 123.392 38.499 123.743 34.1439C124.095 29.7888 123.578 25.4073 122.224 21.2533" fill="#764ABC"/>
</g>
<defs>
<clipPath id="clip0_46_28">
<rect width="128" height="128" fill="white"/>
</clipPath>
</defs>
</svg>
