<svg width="204" height="108" viewBox="0 0 204 108" fill="none" xmlns="http://www.w3.org/2000/svg">
<path d="M102 107.396C158.057 107.396 203.5 83.4899 203.5 54C203.5 24.5101 158.057 0.60376 102 0.60376C45.9431 0.60376 0.5 24.5101 0.5 54C0.5 83.4899 45.9431 107.396 102 107.396Z" fill="url(#paint0_radial_52_16)"/>
<path d="M102 103.43C155.867 103.43 199.534 81.2997 199.534 54C199.534 26.7002 155.867 4.56946 102 4.56946C48.1334 4.56946 4.46582 26.7002 4.46582 54C4.46582 81.2997 48.1334 103.43 102 103.43Z" fill="#6280B6"/>
<path d="M121.756 69.95L126.592 45.0535C127.281 42.9228 127.394 40.6478 126.921 38.4591C126.447 36.2705 125.403 34.2459 123.895 32.5907C119.685 29.6013 114.53 28.2482 109.395 28.7845H101.036L103.436 16.4595C103.479 16.23 103.472 15.9937 103.414 15.7674C103.356 15.5411 103.248 15.3304 103.1 15.1504C102.951 14.9704 102.764 14.8254 102.553 14.7258C102.341 14.6263 102.11 14.5746 101.877 14.5745H90.2769C89.9085 14.5744 89.5516 14.7023 89.2673 14.9364C88.9829 15.1705 88.7888 15.4962 88.7181 15.8577L83.5779 42.2912C83.1823 39.465 81.9818 36.8123 80.1196 34.6497C78.0464 32.5734 75.5452 30.9742 72.7904 29.9637C70.0357 28.9533 67.0937 28.5558 64.1696 28.799H41.8251C41.4568 28.7989 41.0999 28.9268 40.8155 29.1609C40.5311 29.395 40.337 29.7207 40.2664 30.0822L29.8699 83.5872C29.8261 83.8167 29.8336 84.053 29.8917 84.2793C29.9498 84.5056 30.0571 84.7162 30.206 84.8963C30.3548 85.0763 30.5416 85.2213 30.7529 85.3208C30.9643 85.4204 31.195 85.4721 31.4286 85.4722H43.0504C43.4187 85.4723 43.7756 85.3444 44.06 85.1103C44.3444 84.8761 44.5385 84.5505 44.6091 84.189L47.1249 71.2477H55.8249C59.6661 71.3503 63.5003 70.8612 67.1929 69.7977C70.3063 68.7676 73.1534 67.0618 75.5304 64.8025C77.4782 63.0281 79.1411 60.9642 80.4604 58.6835L78.3796 69.3772C78.3359 69.6067 78.3433 69.843 78.4014 70.0693C78.4595 70.2956 78.5668 70.5062 78.7157 70.6863C78.8646 70.8663 79.0514 71.0113 79.2627 71.1108C79.474 71.2104 79.7048 71.2621 79.9384 71.2622H91.5384C91.9067 71.2623 92.2636 71.1344 92.548 70.9003C92.8324 70.6662 93.0265 70.3405 93.0971 69.979L98.8029 40.6092H106.734C110.113 40.6092 111.084 41.2835 111.374 41.5735C111.664 41.8635 112.099 42.7697 111.556 45.6987L106.952 69.37C106.908 69.5995 106.916 69.8358 106.974 70.062C107.032 70.2883 107.139 70.499 107.288 70.679C107.437 70.8591 107.624 71.004 107.835 71.1036C108.046 71.2031 108.277 71.2548 108.511 71.255H120.256C120.617 71.2409 120.963 71.1039 121.236 70.8665C121.509 70.6292 121.692 70.3059 121.756 69.95ZM68.1426 49.4035C67.788 52.4472 66.3432 55.2596 64.0754 57.3205C61.2267 59.0924 57.8863 59.9078 54.5416 59.6477H49.3796L53.1134 40.428H59.7906C64.6989 40.428 66.6709 41.4792 67.4684 42.3565C68.0767 43.4151 68.4516 44.5916 68.5679 45.807C68.6842 47.0224 68.5392 48.2487 68.1426 49.4035ZM171.209 34.657C169.135 32.5806 166.634 30.9815 163.879 29.971C161.125 28.9605 158.183 28.563 155.259 28.8062H132.849C132.481 28.8061 132.124 28.9341 131.839 29.1682C131.555 29.4023 131.361 29.728 131.29 30.0895L120.894 83.5945C120.85 83.824 120.857 84.0603 120.915 84.2865C120.974 84.5128 121.081 84.7235 121.23 84.9035C121.379 85.0836 121.565 85.2285 121.777 85.3281C121.988 85.4276 122.219 85.4793 122.452 85.4795H134.11C134.479 85.4796 134.836 85.3516 135.12 85.1175C135.404 84.8834 135.598 84.5577 135.669 84.1962L138.185 71.255H146.885C150.726 71.3575 154.56 70.8685 158.253 69.805C161.366 68.7749 164.213 67.0691 166.59 64.8097C170.661 61.1411 173.404 56.2291 174.391 50.839C175.171 48.0815 175.29 45.1789 174.737 42.367C174.184 39.5552 172.975 36.9136 171.209 34.657ZM159.123 49.4035C158.768 52.4472 157.323 55.2596 155.056 57.3205C152.2 59.0944 148.851 59.9074 145.5 59.6405H140.353L144.086 40.4207H150.764C155.672 40.4207 157.644 41.472 158.441 42.3492C159.052 43.4082 159.429 44.5857 159.546 45.8025C159.664 47.0193 159.519 48.2471 159.123 49.4035Z" fill="white"/>
<path d="M59.7903 38.8329C61.3546 38.636 62.9424 38.7512 64.4618 39.1718C65.9813 39.5924 67.4023 40.3101 68.6426 41.2834C69.4429 42.5156 69.9533 43.9133 70.1354 45.3713C70.3175 46.8292 70.1665 48.3095 69.6938 49.7007C69.2794 53.1262 67.6234 56.2809 65.0393 58.5674C61.9228 60.5748 58.2388 61.5161 54.5413 61.2499H47.4508L51.8008 38.8547L59.7903 38.8329ZM31.3921 83.8989H43.0501L45.8123 69.6744H55.7956C59.4702 69.7747 63.1383 69.3076 66.6706 68.2897C69.5695 67.3325 72.2193 65.7426 74.4281 63.6352C78.2514 60.1959 80.8265 55.5861 81.7506 50.5272C82.4822 48.0115 82.6107 45.3588 82.1258 42.7841C81.6408 40.2095 80.556 37.7853 78.9593 35.7082C77.034 33.8039 74.7165 32.3424 72.1684 31.4259C69.6202 30.5093 66.9028 30.1596 64.2056 30.4012H41.8248L31.3921 83.8989ZM90.3056 16.1694H101.906L99.0998 30.3939H109.402C114.134 29.8987 118.888 31.1013 122.815 33.7869C124.114 35.2643 125.003 37.0575 125.391 38.9865C125.779 40.9156 125.653 42.9129 125.026 44.7779L120.19 69.6744H108.452L113.056 46.0032C113.377 45.0997 113.491 44.1359 113.391 43.1824C113.29 42.229 112.978 41.3101 112.476 40.4932C110.797 39.2905 108.723 38.772 106.676 39.0432H97.4323L91.4728 69.6962H79.8728L90.3056 16.1694ZM150.771 38.8329C152.335 38.636 153.923 38.7512 155.442 39.1718C156.962 39.5924 158.383 40.3101 159.623 41.2834C160.423 42.5156 160.934 43.9133 161.116 45.3713C161.298 46.8292 161.147 48.3095 160.674 49.7007C160.26 53.1262 158.604 56.2809 156.02 58.5674C152.897 60.5794 149.205 61.5209 145.5 61.2499H138.409L142.759 38.8547L150.771 38.8329ZM122.372 83.8989H134.03L136.793 69.6744H146.776C150.45 69.7747 154.119 69.3076 157.651 68.2897C160.55 67.3325 163.2 65.7426 165.408 63.6352C169.232 60.1959 171.807 55.5861 172.731 50.5272C173.462 48.0115 173.591 45.3588 173.106 42.7841C172.621 40.2095 171.536 37.7853 169.94 35.7082C168.014 33.8039 165.697 32.3424 163.149 31.4259C160.6 30.5093 157.883 30.1596 155.186 30.4012H132.769L122.372 83.8989Z" fill="#000004"/>
<defs>
<radialGradient id="paint0_radial_52_16" cx="0" cy="0" r="1" gradientUnits="userSpaceOnUse" gradientTransform="translate(61.4435 19.3813) scale(133.284 133.284)">
<stop stop-color="white"/>
<stop offset="0.5" stop-color="#4C6B96"/>
<stop offset="1" stop-color="#231F20"/>
</radialGradient>
</defs>
</svg>
