<svg width="154" height="147" viewBox="0 0 154 147" fill="none" xmlns="http://www.w3.org/2000/svg">
<g clip-path="url(#clip0_46_11)">
<path d="M106.706 102.257C112.389 101.668 116.7 96.7616 116.504 90.8731C116.308 84.9853 111.409 80.2747 105.53 80.2747H105.138C99.0623 80.4711 94.3593 85.5739 94.5554 91.6581C94.7515 94.6023 95.927 97.1538 97.6907 98.9202C91.0278 112.071 80.8374 121.688 65.5517 129.735C55.1651 135.23 44.3869 137.193 33.6087 135.82C24.7898 134.642 17.9308 130.717 13.6188 124.239C7.34808 114.622 6.76035 104.219 12.0517 93.8173C15.7754 86.3589 21.6538 80.8633 25.3775 78.1154C24.5937 75.564 23.4176 71.2462 22.8299 68.1062C-5.58612 88.7145 -2.64628 116.585 5.97652 129.735C12.4433 139.549 25.5736 145.633 40.0755 145.633C43.9947 145.633 47.9138 145.24 51.8336 144.259C76.9182 139.352 95.9276 124.436 106.706 102.257ZM141.197 77.9196C126.303 60.4513 104.354 50.8343 79.2697 50.8343H76.1343C74.3706 47.3015 70.6469 44.9459 66.5316 44.9459H66.1394C60.0648 45.1423 55.3618 50.2451 55.5573 56.3299C55.7534 62.2178 60.6525 66.9284 66.5316 66.9284H66.9232C71.2346 66.732 74.9583 63.9842 76.526 60.2549H80.0535C94.9476 60.2549 109.057 64.5728 121.796 73.0126C131.594 79.4897 138.649 87.9295 142.568 98.1352C145.9 106.379 145.704 114.426 142.176 121.295C136.689 131.698 127.479 137.39 115.329 137.39C107.49 137.39 100.043 135.034 96.1231 133.268C93.9677 135.23 90.0479 138.37 87.3042 140.334C95.7314 144.259 104.354 146.418 112.585 146.418C131.398 146.418 145.312 136.015 150.604 125.613C156.287 114.229 155.894 94.6023 141.197 77.9196ZM41.6432 105.593C41.8393 111.481 46.7384 116.191 52.6175 116.191H53.0097C59.0849 115.996 63.7879 110.892 63.5918 104.808C63.3963 98.9196 58.4965 94.2095 52.6175 94.2095H52.2258C51.8336 94.2095 51.2453 94.2095 50.8543 94.4053C42.8192 81.0591 39.4878 66.5356 40.6638 50.8337C41.447 39.0574 45.3668 28.8512 52.2258 20.4113C57.9088 13.1493 68.8831 9.61645 76.3305 9.42065C97.103 9.02785 105.921 34.9354 106.51 45.3381C109.057 45.9267 113.369 47.3009 116.308 48.2823C113.956 16.4869 94.3593 0 75.5466 0C57.9088 0 41.6432 12.7577 35.1758 31.5996C26.1613 56.7221 32.0404 80.8633 43.0147 99.9016C42.0354 101.275 41.447 103.434 41.6432 105.593Z" fill="#764ABC"/>
</g>
<defs>
<clipPath id="clip0_46_11">
<rect width="154" height="147" fill="white"/>
</clipPath>
</defs>
</svg>
