<svg width="213" height="214" viewBox="0 0 213 214" fill="none" xmlns="http://www.w3.org/2000/svg">
<path d="M0 69.3074C0 81.4622 9.85106 91.3153 22.003 91.3153C34.1548 91.3153 44.006 81.4622 44.006 69.3074C44.006 57.1527 34.1548 47.2996 22.003 47.2996C9.85106 47.2996 0 57.1527 0 69.3074Z" fill="#FFCC33"/>
<path d="M0 179.347C0 191.502 9.85106 201.355 22.003 201.355C34.1548 201.355 44.006 191.502 44.006 179.347C44.006 167.192 34.1548 157.339 22.003 157.339C9.85106 157.339 0 167.192 0 179.347Z" fill="#FFCC33"/>
<path d="M8.25146 124.328C8.25146 131.925 14.4085 138.083 22.0035 138.083C29.5986 138.083 35.7556 131.925 35.7556 124.328C35.7556 116.731 29.5986 110.572 22.0035 110.572C14.4085 110.572 8.25146 116.731 8.25146 124.328Z" fill="#FFCC33"/>
<path d="M8.25146 14.2853C8.25146 21.8822 14.4085 28.0406 22.0035 28.0406C29.5986 28.0406 35.7556 21.8822 35.7556 14.2853C35.7556 6.68845 29.5986 0.530029 22.0035 0.530029C14.4085 0.530029 8.25146 6.68845 8.25146 14.2853Z" fill="#FFCC33"/>
<path d="M84.436 144.683C84.436 156.837 94.2873 166.691 106.439 166.691C118.591 166.691 128.442 156.837 128.442 144.683C128.442 132.528 118.591 122.675 106.439 122.675C94.2873 122.675 84.436 132.528 84.436 144.683Z" fill="#FFCC33"/>
<path d="M92.6875 199.703C92.6875 207.299 98.8448 213.459 106.44 213.459C114.035 213.459 120.192 207.299 120.192 199.703C120.192 192.106 114.035 185.948 106.44 185.948C98.8448 185.948 92.6875 192.106 92.6875 199.703Z" fill="#FFCC33"/>
<path d="M92.6875 89.6635C92.6875 97.2605 98.8448 103.419 106.44 103.419C114.035 103.419 120.192 97.2605 120.192 89.6635C120.192 82.067 114.035 75.9082 106.44 75.9082C98.8448 75.9082 92.6875 82.067 92.6875 89.6635Z" fill="#FFCC33"/>
<path d="M92.6875 34.6437C92.6875 42.2404 98.8448 48.3991 106.44 48.3991C114.035 48.3991 120.192 42.2404 120.192 34.6437C120.192 27.0468 114.035 20.8884 106.44 20.8884C98.8448 20.8884 92.6875 27.0468 92.6875 34.6437Z" fill="#FFCC33"/>
<path d="M168.872 69.3074C168.872 81.4622 178.723 91.3153 190.875 91.3153C203.027 91.3153 212.878 81.4622 212.878 69.3074C212.878 57.1527 203.027 47.2996 190.875 47.2996C178.723 47.2996 168.872 57.1527 168.872 69.3074Z" fill="#FFCC33"/>
<path d="M177.128 14.2853C177.128 21.8822 183.285 28.0406 190.881 28.0406C198.475 28.0406 204.633 21.8822 204.633 14.2853C204.633 6.68845 198.475 0.530029 190.881 0.530029C183.285 0.530029 177.128 6.68845 177.128 14.2853Z" fill="#FFCC33"/>
<path d="M177.128 124.328C177.128 131.925 183.285 138.083 190.881 138.083C198.475 138.083 204.633 131.925 204.633 124.328C204.633 116.731 198.475 110.572 190.881 110.572C183.285 110.572 177.128 116.731 177.128 124.328Z" fill="#FFCC33"/>
<path d="M177.128 179.348C177.128 186.944 183.285 193.103 190.881 193.103C198.475 193.103 204.633 186.944 204.633 179.348C204.633 171.751 198.475 165.592 190.881 165.592C183.285 165.592 177.128 171.751 177.128 179.348Z" fill="#FFCC33"/>
</svg>
