<svg width="30" height="30" viewBox="0 0 30 30" fill="none" xmlns="http://www.w3.org/2000/svg">
<path d="M15.1125 1.87501C9.93753 1.87501 5.08128 4.91251 2.85003 9.75001H9.13128V10.4438C7.20003 10.2188 7.36878 11.2125 7.65003 12.2625L11.775 22.5375L14.7938 15.4688L13.4063 12.15C12.9 11.2688 12.9 10.275 10.8188 10.3688L10.8563 9.73126H20.0625V10.4625C18.9938 10.5188 17.6813 10.2 18.375 12.3938L22.1063 22.125L24.15 16.4438C24.825 14.0625 24.1875 11.775 23.4 9.52501C22.9688 8.02501 23.1563 6.76876 25.1438 6.26251C22.125 3.20626 18.5813 1.85626 15.15 1.85626L15.1125 1.87501ZM27.6375 10.8563L21.675 26.3438C23.325 24.9188 25.0125 24.4125 27.075 20.475C28.4438 17.2125 28.3125 14.175 27.6375 10.8563ZM2.23128 11.1C1.65003 15.675 1.70628 17.0063 3.15003 20.7375C5.02503 24.3188 6.48753 25.0688 8.55003 26.475L2.23128 11.1188V11.1ZM15.3563 16.8938L10.9313 27.5063C14.0438 28.3875 16.8188 28.275 19.35 27.3L15.3563 16.8938Z" fill="#0051A8"/>
</svg>
