<svg width="452" height="393" viewBox="0 0 452 393" fill="none" xmlns="http://www.w3.org/2000/svg">
<path d="M1.25586 386.025H451.256" stroke="#263238" stroke-linecap="round" stroke-linejoin="round"/>
<path d="M347.569 234.226V234.341C347.569 234.529 347.611 234.728 347.695 234.937C348.163 237.23 348.512 239.546 348.741 241.875C348.94 243.873 349.097 246.154 349.139 248.697C349.238 254.574 348.835 260.448 347.935 266.256C347.705 267.783 347.433 269.395 347.109 271.006C346.596 273.664 345.968 276.447 345.194 279.325C344.848 280.664 344.451 282.035 344.032 283.416L343.54 285.101C343.352 285.781 343.164 286.461 342.986 287.194C341.783 291.843 340.823 296.551 340.108 301.299C339.219 307.211 338.664 313.082 338.361 318.638C337.953 326.046 337.974 332.89 338.152 338.519C338.146 338.613 338.146 338.708 338.152 338.802C338.34 344.526 338.696 349.015 338.936 351.568C339.072 353.064 339.167 353.912 339.177 353.964" stroke="#263238" stroke-linecap="round" stroke-linejoin="round"/>
<path d="M347.6 234.372C346.034 232.98 344.146 231.999 342.107 231.516Z" fill="white"/>
<path d="M347.6 234.372C346.034 232.98 344.146 231.999 342.107 231.516" stroke="#263238" stroke-linecap="round" stroke-linejoin="round"/>
<path d="M348.772 241.906L351.556 239.385" stroke="#263238" stroke-linecap="round" stroke-linejoin="round"/>
<path d="M345.225 279.336C345.079 278.601 344.862 277.883 344.576 277.19C344.164 276.175 343.603 275.227 342.913 274.376C342.397 273.736 341.811 273.157 341.165 272.649" stroke="#263238" stroke-linecap="round" stroke-linejoin="round"/>
<path d="M342.996 287.183C343.391 286.206 343.981 285.32 344.732 284.581C345.483 283.841 346.377 283.263 347.36 282.883" stroke="#263238" stroke-linecap="round" stroke-linejoin="round"/>
<path d="M338.162 326.109C339.093 324.979 339.794 320.699 340.171 318.397C340.265 317.853 340.339 317.351 340.412 317.047" fill="white"/>
<path d="M338.162 326.109C339.093 324.979 339.794 320.699 340.171 318.397C340.265 317.853 340.339 317.351 340.412 317.047" stroke="#263238" stroke-linecap="round" stroke-linejoin="round"/>
<path d="M330.994 333.873C331.304 333.842 331.616 333.842 331.926 333.873C333.296 334.007 334.605 334.51 335.711 335.331C336.817 336.151 337.679 337.257 338.204 338.53" fill="white"/>
<path d="M330.994 333.873C331.304 333.842 331.616 333.842 331.926 333.873C333.296 334.007 334.605 334.51 335.711 335.331C336.817 336.151 337.679 337.257 338.204 338.53" stroke="#263238" stroke-linecap="round" stroke-linejoin="round"/>
<path d="M347.14 271.09C347.14 271.09 347.632 254.107 338.309 247.944" stroke="#263238" stroke-linecap="round" stroke-linejoin="round"/>
<path d="M347.935 307.494C349.16 311.46 340.611 319.004 340.611 319.004C340.611 319.004 329.32 317.592 328.054 313.636C326.788 309.681 329.686 303.172 335.169 301.498C340.652 299.824 346.753 303.528 347.935 307.494Z" fill="#007BFF"/>
<path d="M357.447 259.433C356.401 263.619 348.281 266.622 348.281 266.622C348.281 266.622 342.703 260.103 343.75 255.896C344.796 251.69 349.306 247.065 353.094 248.038C356.882 249.011 358.535 255.227 357.447 259.433Z" fill="#007BFF"/>
<path d="M325.019 322.29C330.094 324.257 333.202 333.235 333.202 333.235C333.202 333.235 324.831 337.745 319.766 335.767C314.702 333.79 309.303 328.223 310.768 324.508C312.233 320.793 319.944 320.27 325.019 322.29Z" fill="#007BFF"/>
<path d="M336.143 272.9C337.17 273.764 338.347 274.431 339.617 274.868C340.254 275.074 340.935 275.101 341.587 274.946C342.238 274.791 342.834 274.46 343.31 273.989C344.357 272.743 344.106 270.849 343.425 269.29C342.065 266.308 337.063 261.233 333.223 262.688C327.677 264.812 333.673 271.09 336.143 272.9Z" fill="#007BFF"/>
<path d="M347.496 280.508C346.763 281.407 345.989 282.548 346.397 283.647C346.625 284.108 346.998 284.482 347.46 284.709C347.922 284.936 348.446 285.004 348.95 284.902C349.954 284.664 350.891 284.203 351.692 283.553C353.649 282.192 357.667 279.367 355.103 276.678C352.539 273.989 348.982 278.614 347.496 280.508Z" fill="#007BFF"/>
<path d="M331.12 242.555C330.697 242.579 330.293 242.736 329.965 243.003C329.636 243.269 329.4 243.632 329.289 244.041C329.121 245.014 329.927 245.861 330.701 246.458C332.648 247.965 338.497 252.004 339.794 248.101C341.029 244.417 333.694 242.272 331.12 242.555Z" fill="#007BFF"/>
<path d="M341.887 229.726C340.684 229.841 339.481 229.402 338.267 229.475C337.053 229.548 335.724 230.521 335.986 231.714C336.247 232.907 337.597 233.169 338.706 233.232C340.616 233.354 342.533 233.224 344.409 232.844C344.853 232.802 345.265 232.593 345.56 232.258C346.052 231.536 345.278 230.574 344.44 230.323C343.581 230.208 342.736 230.005 341.919 229.716L341.887 229.726Z" fill="#007BFF"/>
<path d="M353.67 238.024C354.873 238.024 356.045 237.543 357.259 237.532C358.472 237.522 359.875 238.411 359.676 239.625C359.477 240.839 358.179 241.184 357.07 241.32C355.174 241.571 353.253 241.571 351.357 241.32C350.908 241.31 350.481 241.126 350.164 240.808C349.63 240.127 350.342 239.112 351.148 238.798C352.001 238.639 352.833 238.383 353.628 238.035L353.67 238.024Z" fill="#007BFF"/>
<path d="M352.477 327.197C352.754 326.908 353.125 326.726 353.523 326.685C353.792 326.71 354.043 326.829 354.234 327.02C354.425 327.211 354.544 327.462 354.569 327.731C354.627 328.248 354.563 328.771 354.381 329.259C353.554 332.011 344.346 351.882 342.222 348.313C340.977 346.221 344.053 339.22 344.964 337.243C346.701 333.384 349.266 329.954 352.477 327.197Z" fill="#007BFF"/>
<path d="M347.988 235.513C347.988 235.513 347.433 230.689 348.595 230.281" stroke="#263238" stroke-linecap="round" stroke-linejoin="round"/>
<path d="M346.962 230.479C347.556 228.776 348.579 227.255 349.934 226.064C351.388 225.017 353.722 224.934 354.779 226.388C355.961 228.01 354.779 230.469 352.968 231.338C351.158 232.206 349.024 231.944 347.035 231.662C347.035 231.369 347.035 231.076 347.035 230.783L346.962 230.479Z" fill="#007BFF"/>
<path d="M351.922 385.785C342.058 387.449 331.985 387.449 322.121 385.785L310.527 351.578H363.516L351.922 385.785Z" fill="white" stroke="#263238" stroke-linecap="round" stroke-linejoin="round"/>
<path d="M149.697 138.648V138.764C149.739 138.952 149.78 139.151 149.822 139.36C150.296 141.652 150.646 143.968 150.869 146.298C151.068 148.296 151.214 150.577 151.266 153.12C151.374 158.982 150.982 164.842 150.094 170.637C149.864 172.164 149.592 173.776 149.268 175.387C148.755 178.045 148.117 180.828 147.353 183.706C146.997 185.045 146.61 186.416 146.191 187.797C146.024 188.362 145.856 188.917 145.7 189.482C145.543 190.047 145.312 190.842 145.134 191.575C143.933 196.224 142.972 200.932 142.257 205.68C141.367 211.592 140.823 217.463 140.52 223.019C140.112 230.427 140.122 237.271 140.311 242.9V243.183C140.509 248.907 140.855 253.396 141.106 255.959C141.231 257.445 141.336 258.293 141.336 258.345" stroke="#263238" stroke-linecap="round" stroke-linejoin="round"/>
<path d="M149.718 138.795C148.967 138.138 148.146 137.566 147.269 137.089C146.303 136.58 145.276 136.193 144.214 135.938" fill="white"/>
<path d="M149.718 138.795C148.967 138.138 148.146 137.566 147.269 137.089C146.303 136.58 145.276 136.193 144.214 135.938" stroke="#263238" stroke-linecap="round" stroke-linejoin="round"/>
<path d="M150.89 146.329L153.683 143.807" stroke="#263238" stroke-linecap="round" stroke-linejoin="round"/>
<path d="M147.353 183.758C147.203 183.023 146.983 182.305 146.694 181.613C146.281 180.598 145.72 179.649 145.03 178.798C144.514 178.159 143.928 177.58 143.282 177.072" stroke="#263238" stroke-linecap="round" stroke-linejoin="round"/>
<path d="M145.124 191.564C145.515 190.586 146.103 189.7 146.852 188.96C147.601 188.22 148.495 187.642 149.477 187.264" stroke="#263238" stroke-linecap="round" stroke-linejoin="round"/>
<path d="M140.279 230.532C141.211 229.402 141.922 225.122 142.299 222.82C142.382 222.276 142.466 221.774 142.529 221.47" fill="white"/>
<path d="M140.279 230.532C141.211 229.402 141.922 225.122 142.299 222.82C142.382 222.276 142.466 221.774 142.529 221.47" stroke="#263238" stroke-linecap="round" stroke-linejoin="round"/>
<path d="M133.111 238.254C133.425 238.223 133.74 238.223 134.053 238.254C135.423 238.391 136.73 238.896 137.835 239.716C138.941 240.536 139.803 241.64 140.332 242.911" fill="white"/>
<path d="M133.111 238.254C133.425 238.223 133.74 238.223 134.053 238.254C135.423 238.391 136.73 238.896 137.835 239.716C138.941 240.536 139.803 241.64 140.332 242.911" stroke="#263238" stroke-linecap="round" stroke-linejoin="round"/>
<path d="M149.257 175.471C149.257 175.471 149.76 158.488 140.426 152.325" stroke="#263238" stroke-linecap="round" stroke-linejoin="round"/>
<path d="M150.105 211.917C151.319 215.883 142.78 223.427 142.78 223.427C142.78 223.427 131.479 222.014 130.223 218.059C128.968 214.104 131.866 207.595 137.339 205.921C142.811 204.247 148.881 207.961 150.105 211.917Z" fill="#007BFF"/>
<path d="M159.585 163.856C158.539 168.041 150.419 171.045 150.419 171.045C150.419 171.045 144.779 164.526 145.867 160.319C146.955 156.113 151.413 151.488 155.201 152.461C158.989 153.434 160.632 159.649 159.585 163.856Z" fill="#007BFF"/>
<path d="M127.147 226.712C132.222 228.69 135.34 237.658 135.34 237.658C135.34 237.658 126.969 242.168 121.894 240.19C116.819 238.212 111.43 232.646 112.906 228.931C114.381 225.216 122.062 224.735 127.147 226.712Z" fill="#007BFF"/>
<path d="M138.27 177.323C139.294 178.186 140.468 178.853 141.734 179.29C142.371 179.496 143.052 179.524 143.704 179.368C144.355 179.213 144.952 178.882 145.427 178.411C146.474 177.166 146.223 175.272 145.543 173.713C144.182 170.731 139.191 165.656 135.34 167.11C129.805 169.213 135.79 175.492 138.27 177.323Z" fill="#007BFF"/>
<path d="M149.613 184.941C148.891 185.841 148.117 187.034 148.514 188.08C148.742 188.542 149.116 188.915 149.577 189.142C150.039 189.369 150.563 189.437 151.068 189.336C152.072 189.099 153.009 188.638 153.809 187.986C155.766 186.636 159.784 183.8 157.22 181.111C154.657 178.422 151.151 183.036 149.613 184.941Z" fill="#007BFF"/>
<path d="M133.237 146.978C132.815 147.004 132.412 147.161 132.084 147.427C131.755 147.694 131.518 148.056 131.406 148.464C131.238 149.437 132.044 150.284 132.829 150.881C134.775 152.388 140.614 156.427 141.922 152.524C143.146 148.84 135.822 146.695 133.237 146.978Z" fill="#007BFF"/>
<path d="M144.004 134.149C142.801 134.264 141.598 133.824 140.394 133.898C139.191 133.971 137.841 134.944 138.113 136.137C138.385 137.33 139.714 137.591 140.834 137.654C142.74 137.777 144.654 137.647 146.526 137.267C146.973 137.225 147.388 137.016 147.688 136.681C148.169 135.959 147.395 134.996 146.568 134.745C145.705 134.631 144.857 134.428 144.036 134.138L144.004 134.149Z" fill="#007BFF"/>
<path d="M155.787 142.447C157.001 142.447 158.173 141.965 159.376 141.955C160.579 141.944 161.992 142.834 161.803 144.048C161.615 145.262 160.297 145.607 159.187 145.743C157.291 145.994 155.37 145.994 153.474 145.743C153.025 145.733 152.598 145.549 152.281 145.23C151.748 144.55 152.459 143.535 153.275 143.221C154.128 143.059 154.959 142.803 155.755 142.457L155.787 142.447Z" fill="#007BFF"/>
<path d="M154.594 231.62C154.872 231.332 155.242 231.151 155.64 231.107C155.907 231.139 156.155 231.259 156.345 231.449C156.535 231.639 156.655 231.887 156.687 232.154C156.741 232.672 156.673 233.195 156.488 233.682C155.672 236.434 146.453 256.304 144.339 252.736C143.084 250.644 146.16 243.643 147.07 241.665C148.811 237.806 151.379 234.376 154.594 231.62Z" fill="#007BFF"/>
<path d="M150.105 139.956C150.105 139.956 149.55 135.132 150.722 134.724" stroke="#263238" stroke-linecap="round" stroke-linejoin="round"/>
<path d="M149.121 134.902C149.707 133.195 150.732 131.672 152.093 130.487C153.547 129.44 155.87 129.356 156.927 130.811C158.11 132.433 156.927 134.892 155.117 135.76C153.307 136.629 151.183 136.367 149.194 136.085C149.194 135.792 149.194 135.499 149.194 135.206L149.121 134.902Z" fill="#007BFF"/>
<path d="M17.1191 254.316V150.923" stroke="#263238" stroke-linecap="round" stroke-linejoin="round"/>
<path d="M339.93 254.316H327.154" stroke="#263238" stroke-linecap="round" stroke-linejoin="round"/>
<path d="M440.122 254.316H414.099" stroke="#263238" stroke-linecap="round" stroke-linejoin="round"/>
<path d="M325.982 97.2429H372.096V53.3154" stroke="#263238" stroke-linecap="round" stroke-linejoin="round"/>
<path d="M57.2063 83.8281H106.198V119.562H159.899" stroke="#263238" stroke-linecap="round" stroke-linejoin="round"/>
<path d="M28.3051 204.843V125.883" stroke="#263238" stroke-linecap="round" stroke-linejoin="round"/>
<path d="M50.1955 91.613V153.497" stroke="#263238" stroke-linecap="round" stroke-linejoin="round"/>
<path d="M72.0755 91.613V146.318" stroke="#263238" stroke-linecap="round" stroke-linejoin="round"/>
<path d="M93.9555 91.613V187.305" stroke="#263238" stroke-linecap="round" stroke-linejoin="round"/>
<path d="M198.772 78.0415V15.1221H287.852V78.0415" stroke="#263238" stroke-linecap="round" stroke-linejoin="round"/>
<path d="M205.302 46.3777V22.5933H221.772" stroke="#263238" stroke-linecap="round" stroke-linejoin="round"/>
<path d="M225.393 46.3777V22.5933H241.863" stroke="#263238" stroke-linecap="round" stroke-linejoin="round"/>
<path d="M245.483 46.3777V22.5933H261.953" stroke="#263238" stroke-linecap="round" stroke-linejoin="round"/>
<path d="M265.574 46.3777V22.5933H282.044" stroke="#263238" stroke-linecap="round" stroke-linejoin="round"/>
<path d="M205.302 78.0415V54.2571H221.772" stroke="#263238" stroke-linecap="round" stroke-linejoin="round"/>
<path d="M225.393 78.0415V54.2571H241.863" stroke="#263238" stroke-linecap="round" stroke-linejoin="round"/>
<path d="M245.483 78.0415V54.2571H261.953" stroke="#263238" stroke-linecap="round" stroke-linejoin="round"/>
<path d="M265.574 78.0415V54.2571H282.044" stroke="#263238" stroke-linecap="round" stroke-linejoin="round"/>
<path d="M379.233 58.7566V137.602" stroke="#263238" stroke-linecap="round" stroke-linejoin="round"/>
<path d="M411.577 248.54H414.099" stroke="#263238" stroke-linecap="round" stroke-linejoin="round"/>
<path d="M398.622 81.4004V169.674" stroke="#263238" stroke-linecap="round" stroke-linejoin="round"/>
<path d="M418.023 226.001V248.54H433.499" stroke="#263238" stroke-linecap="round" stroke-linejoin="round"/>
<path d="M418.023 110.176V170.124" stroke="#263238" stroke-linecap="round" stroke-linejoin="round"/>
<path d="M437.412 155.663V248.54H440.938" stroke="#263238" stroke-linecap="round" stroke-linejoin="round"/>
<path d="M201.116 256.21H1.25586V386.026H201.116V256.21Z" fill="white" stroke="#263238" stroke-linecap="round" stroke-linejoin="round"/>
<path d="M1.25586 256.21L101.186 321.118L201.116 256.21H1.25586Z" fill="white" stroke="#263238" stroke-linecap="round" stroke-linejoin="round"/>
<path d="M71.1443 301.603L1.25586 386.026" stroke="#263238" stroke-linecap="round" stroke-linejoin="round"/>
<path d="M131.772 301.603L201.66 386.026" stroke="#263238" stroke-linecap="round" stroke-linejoin="round"/>
<path d="M308.068 90.5668H261.608C260.27 90.5684 258.957 90.9283 257.805 91.6092C256.653 92.29 255.704 93.267 255.058 94.4385C253.916 96.4989 252.244 98.2162 250.214 99.412C248.184 100.608 245.872 101.238 243.516 101.238C241.16 101.238 238.848 100.608 236.818 99.412C234.789 98.2162 233.116 96.4989 231.974 94.4385C231.333 93.2518 230.383 92.2607 229.224 91.5699C228.065 90.8791 226.742 90.5145 225.393 90.5145H178.985C177.711 90.4979 176.447 90.7324 175.263 91.2046C174.08 91.6768 173.002 92.3775 172.089 93.2666C171.177 94.1556 170.448 95.2158 169.946 96.3864C169.443 97.557 169.176 98.8151 169.16 100.089V362.126C169.195 364.698 170.25 367.15 172.092 368.945C173.934 370.74 176.413 371.731 178.985 371.7H308.068C310.641 371.731 313.121 370.741 314.965 368.946C316.808 367.151 317.865 364.699 317.904 362.126V100.141C317.868 97.5677 316.812 95.1136 314.968 93.3182C313.123 91.5229 310.642 90.5333 308.068 90.5668Z" fill="#007BFF"/>
<path d="M322.435 97.2427C322.44 95.4775 322.097 93.7286 321.426 92.0963C320.754 90.4639 319.767 88.9801 318.521 87.73C317.274 86.4799 315.794 85.488 314.163 84.8113C312.533 84.1345 310.785 83.7861 309.02 83.7861H178.043C176.282 83.7848 174.538 84.1305 172.911 84.8035C171.283 85.4765 169.804 86.4636 168.558 87.7085C167.313 88.9533 166.324 90.4314 165.65 92.0584C164.976 93.6854 164.629 95.4292 164.629 97.1904V372.59C164.629 376.145 166.041 379.554 168.555 382.068C171.069 384.582 174.478 385.994 178.033 385.994H309.02C312.576 385.994 315.987 384.582 318.502 382.069C321.017 379.555 322.432 376.146 322.435 372.59V97.2427ZM317.904 362.126C317.865 364.699 316.808 367.151 314.965 368.946C313.121 370.741 310.641 371.731 308.068 371.7H178.985C176.413 371.731 173.934 370.74 172.092 368.945C170.25 367.15 169.195 364.698 169.16 362.126V100.141C169.176 98.8674 169.443 97.6092 169.946 96.4386C170.448 95.268 171.177 94.2079 172.089 93.3188C173.002 92.4297 174.08 91.729 175.263 91.2569C176.447 90.7847 177.711 90.5501 178.985 90.5667H225.414C226.761 90.5664 228.084 90.931 229.241 91.6219C230.398 92.3128 231.346 93.3041 231.985 94.4907C233.127 96.5512 234.799 98.2685 236.829 99.4642C238.858 100.66 241.171 101.291 243.527 101.291C245.882 101.291 248.195 100.66 250.224 99.4642C252.254 98.2685 253.927 96.5512 255.068 94.4907C255.713 93.3178 256.661 92.3396 257.814 91.6585C258.966 90.9774 260.28 90.6184 261.619 90.6191H308.078C309.352 90.6025 310.617 90.837 311.8 91.3092C312.983 91.7814 314.062 92.482 314.974 93.3711C315.887 94.2602 316.615 95.3203 317.118 96.4909C317.62 97.6615 317.888 98.9197 317.904 100.194V362.126Z" fill="#263238"/>
<path opacity="0.2" d="M277.932 83.8279L190.924 386.015L225.476 385.984L309.261 83.8279H277.932Z" fill="white"/>
<path opacity="0.2" d="M264.957 83.8279L172.968 386.025L178.002 385.994L268.263 83.8279H264.957Z" fill="white"/>
<path d="M266.997 308.478C267.061 311.473 266.525 314.451 265.421 317.236C264.317 320.021 262.666 322.557 260.567 324.694C258.468 326.832 255.962 328.527 253.197 329.682C250.432 330.836 247.464 331.425 244.468 331.414C238.355 331.391 232.493 328.98 228.134 324.694C223.774 320.409 221.262 314.589 221.134 308.478C221.071 305.483 221.608 302.506 222.713 299.722C223.818 296.939 225.468 294.404 227.568 292.268C229.667 290.131 232.172 288.436 234.936 287.283C237.701 286.13 240.667 285.541 243.663 285.551C249.775 285.572 255.637 287.981 259.996 292.265C264.356 296.548 266.869 302.367 266.997 308.478Z" fill="white" stroke="#263238" stroke-linecap="round" stroke-linejoin="round"/>
<path d="M236.547 325.596C234.417 324.809 232.465 323.607 230.802 322.06C229.127 320.45 227.829 318.487 227.004 316.315C226.064 313.88 225.598 311.287 225.633 308.676C225.62 306.451 226.014 304.241 226.795 302.157C227.505 300.232 228.569 298.458 229.934 296.925C232.624 293.983 236.098 291.87 239.948 290.835C241.838 290.326 243.787 290.069 245.745 290.071C247.37 290.064 248.991 290.257 250.569 290.647C252.092 291.021 253.549 291.624 254.89 292.436C256.219 293.234 257.409 294.241 258.417 295.419C259.466 296.688 260.269 298.143 260.781 299.709C261.368 301.495 261.658 303.365 261.64 305.244C261.617 308.877 260.309 312.384 257.946 315.143C256.93 316.295 255.727 317.268 254.388 318.021C253.234 318.683 251.931 319.043 250.6 319.067C249.681 319.079 248.784 318.789 248.047 318.24C247.677 317.966 247.376 317.61 247.167 317.2C246.958 316.789 246.847 316.336 246.844 315.875C246.157 316.919 245.215 317.77 244.107 318.347C242.999 318.924 241.762 319.208 240.513 319.172C239.531 319.215 238.551 319.039 237.646 318.655C236.74 318.271 235.932 317.69 235.281 316.953C233.975 315.435 233.284 313.483 233.345 311.481C233.354 309.833 233.64 308.199 234.193 306.646C234.743 305.082 235.522 303.608 236.505 302.272C237.485 300.96 238.734 299.872 240.168 299.081C241.601 298.272 243.22 297.85 244.866 297.857C246.01 297.845 247.139 298.118 248.152 298.652C249.134 299.176 249.931 299.991 250.433 300.985L250.642 300.284C250.809 299.793 251.164 299.388 251.629 299.159C252.094 298.929 252.631 298.894 253.122 299.06C253.312 299.125 253.492 299.216 253.656 299.332C253.812 299.456 253.936 299.616 254.018 299.798C254.099 299.98 254.137 300.179 254.126 300.378C254.127 300.574 254.095 300.769 254.032 300.954L250.642 312.234C250.343 313.093 250.15 313.986 250.066 314.892C250.035 315.061 250.046 315.235 250.098 315.399C250.15 315.563 250.242 315.711 250.365 315.831C250.488 315.951 250.639 316.039 250.804 316.087C250.969 316.135 251.143 316.141 251.312 316.106C252.511 316.029 253.636 315.493 254.451 314.609C255.581 313.492 256.45 312.137 256.994 310.643C257.643 309.012 257.977 307.272 257.977 305.516C257.991 303.97 257.765 302.431 257.307 300.954C256.923 299.68 256.313 298.486 255.508 297.428C254.745 296.464 253.821 295.639 252.777 294.99C251.736 294.333 250.599 293.842 249.407 293.535C248.185 293.214 246.925 293.052 245.661 293.054C244.058 293.056 242.462 293.281 240.921 293.723C239.334 294.173 237.821 294.853 236.432 295.743C235.031 296.627 233.763 297.705 232.665 298.945C231.534 300.251 230.654 301.755 230.07 303.382C229.413 305.152 229.083 307.028 229.097 308.917C229.062 311.154 229.468 313.376 230.29 315.457C230.998 317.258 232.116 318.87 233.554 320.166C234.944 321.372 236.549 322.306 238.284 322.918C240.115 323.565 242.045 323.891 243.987 323.88C246.063 323.88 248.127 323.566 250.108 322.949C250.306 322.878 250.515 322.843 250.726 322.844C250.922 322.841 251.117 322.88 251.297 322.957C251.477 323.035 251.639 323.15 251.772 323.294C251.906 323.433 252.01 323.597 252.08 323.777C252.15 323.956 252.184 324.148 252.18 324.341C252.205 324.645 252.12 324.948 251.939 325.194C251.758 325.441 251.494 325.613 251.197 325.68C248.727 326.435 246.161 326.83 243.579 326.852C241.179 326.849 238.799 326.424 236.547 325.596ZM245.19 314.745C246.225 314.003 246.992 312.946 247.377 311.732L249.564 304.041L249.418 303.727C249.282 303.475 249.117 303.239 248.926 303.026C248.664 302.723 248.377 302.443 248.068 302.189C247.676 301.876 247.234 301.632 246.76 301.467C245.521 301.034 244.166 301.083 242.961 301.603C242.302 301.882 241.696 302.275 241.172 302.764C240.628 303.272 240.143 303.841 239.728 304.459C239.313 305.103 238.962 305.787 238.682 306.5C238.388 307.213 238.16 307.952 238.002 308.708C237.843 309.426 237.763 310.159 237.761 310.895C237.752 311.367 237.78 311.839 237.845 312.307C237.893 312.724 237.984 313.134 238.117 313.532C238.231 313.901 238.397 314.254 238.608 314.578C238.798 314.87 239.039 315.126 239.32 315.331C239.619 315.548 239.956 315.708 240.314 315.802C240.732 315.925 241.166 315.981 241.601 315.97C242.91 315.986 244.188 315.566 245.232 314.777L245.19 314.745Z" fill="#007BFF" stroke="#263238" stroke-linecap="round" stroke-linejoin="round"/>
<path d="M266.484 229.862C266.547 232.857 266.01 235.833 264.905 238.617C263.8 241.401 262.15 243.936 260.05 246.072C257.951 248.208 255.446 249.903 252.682 251.057C249.918 252.21 246.951 252.799 243.956 252.789C237.843 252.768 231.982 250.359 227.622 246.075C223.262 241.791 220.749 235.973 220.621 229.862C220.555 226.866 221.09 223.888 222.194 221.102C223.298 218.316 224.948 215.78 227.048 213.642C229.148 211.504 231.654 209.809 234.42 208.655C237.185 207.502 240.153 206.913 243.15 206.925C249.263 206.948 255.125 209.36 259.484 213.645C263.844 217.931 266.356 223.75 266.484 229.862Z" fill="white" stroke="#263238" stroke-linecap="round" stroke-linejoin="round"/>
<path d="M257.946 227.769C250.757 223.061 236.662 223.061 229.808 227.769C228.555 228.004 227.428 228.682 226.632 229.679C225.837 230.676 225.427 231.926 225.476 233.2C225.581 236.245 238.232 236.245 238.127 233.2C238.066 231.927 237.579 230.711 236.746 229.747C241.491 228.722 246.4 228.722 251.144 229.747C250.372 230.729 249.972 231.952 250.014 233.2C250.119 236.245 262.77 236.245 262.655 233.2C262.595 231.897 262.098 230.652 261.243 229.667C260.389 228.681 259.227 228.013 257.946 227.769Z" fill="#007BFF" stroke="#263238" stroke-linecap="round" stroke-linejoin="round"/>
<path d="M266.484 153.497C266.61 159.137 263.533 164.18 258.595 167.539V181.236L248.769 171.4C247.18 171.684 245.569 171.824 243.956 171.819C231.294 171.819 220.841 163.615 220.621 153.497C220.401 143.378 230.478 135.185 243.15 135.185C255.822 135.185 266.317 143.43 266.484 153.497Z" fill="white" stroke="#263238" stroke-linecap="round" stroke-linejoin="round"/>
<path d="M233.785 153.497C233.787 154.085 233.614 154.66 233.289 155.151C232.964 155.641 232.5 156.023 231.957 156.25C231.415 156.476 230.817 156.537 230.24 156.423C229.662 156.31 229.132 156.027 228.715 155.612C228.299 155.197 228.015 154.668 227.899 154.091C227.784 153.514 227.842 152.916 228.066 152.372C228.291 151.829 228.672 151.364 229.161 151.037C229.65 150.71 230.225 150.535 230.813 150.535C231.599 150.535 232.354 150.847 232.911 151.402C233.468 151.957 233.782 152.71 233.785 153.497Z" fill="#007BFF" stroke="#263238" stroke-linecap="round" stroke-linejoin="round"/>
<path d="M246.498 153.497C246.5 154.085 246.328 154.66 246.003 155.151C245.677 155.641 245.214 156.023 244.671 156.25C244.128 156.476 243.53 156.537 242.953 156.423C242.376 156.31 241.846 156.027 241.429 155.612C241.012 155.197 240.728 154.668 240.613 154.091C240.497 153.514 240.555 152.916 240.78 152.372C241.005 151.829 241.386 151.364 241.874 151.037C242.363 150.71 242.938 150.535 243.527 150.535C244.313 150.535 245.067 150.847 245.624 151.402C246.181 151.957 246.496 152.71 246.498 153.497Z" fill="#007BFF" stroke="#263238" stroke-linecap="round" stroke-linejoin="round"/>
<path d="M259.212 153.497C259.214 154.085 259.041 154.66 258.716 155.151C258.391 155.641 257.928 156.023 257.385 156.25C256.842 156.476 256.244 156.537 255.667 156.423C255.09 156.31 254.559 156.027 254.143 155.612C253.726 155.197 253.442 154.668 253.326 154.091C253.211 153.514 253.269 152.916 253.494 152.372C253.718 151.829 254.099 151.364 254.588 151.037C255.077 150.71 255.652 150.535 256.24 150.535C257.027 150.535 257.781 150.847 258.338 151.402C258.895 151.957 259.209 152.71 259.212 153.497Z" fill="#007BFF" stroke="#263238" stroke-linecap="round" stroke-linejoin="round"/>
<path d="M115.427 195.258C115.056 195.949 114.521 196.538 113.868 196.974C109.041 200.825 104.102 204.519 99.0515 208.055C97.1993 209.353 95.274 210.692 93.4847 212.147C82.7278 219.346 89.2991 221.104 82.7278 236.339C81.1791 239.981 81.4616 257.822 81.4616 257.822H80.928C79.6684 256.579 78.3297 255.418 76.9203 254.348C76.7256 254.217 76.5229 254.098 76.3134 253.992C76.1169 253.891 75.9046 253.823 75.6856 253.793C74.6392 253.73 70.6524 254.212 66.6238 253.95L65.5775 253.866C64.9915 253.804 64.416 253.73 63.8404 253.626C63.2649 253.521 62.7103 253.406 62.1767 253.26C58.3535 252.034 54.6047 250.587 50.9489 248.927L49.1282 248.143L48.2283 247.756L47.4121 247.4L46.8261 247.149L46.2611 246.908C45.3089 246.51 44.4194 246.144 43.6033 245.862C43.2291 245.727 42.8484 245.612 42.4627 245.516C42.4627 246.374 42.3267 247.253 42.2116 248.111C41.7093 252.203 40.5897 255.98 38.5911 256.482C38.5499 256.493 38.5067 256.493 38.4655 256.482C38.2895 256.515 38.1109 256.533 37.9318 256.535H37.7749C37.3321 256.526 36.8938 256.444 36.4773 256.294C34.6635 255.52 33.1812 254.13 32.2918 252.37C31.8943 251.628 31.6724 250.805 31.643 249.963C31.643 246.918 30.7954 228.952 30.7954 223.72C30.7954 218.488 31.8418 209.332 34.4473 205.931C35.4656 204.489 36.7516 203.257 38.2353 202.3C40.1444 200.709 42.334 199.488 44.6915 198.701C47.4749 197.79 53.7009 195.467 58.0434 193.825L51.4826 196.357C53.1463 199.203 56.7145 203.682 63.1498 204.257C69.198 204.77 72.944 199.297 74.8589 195.3C75.0263 195.363 85.553 193.364 87.9911 193.479C95.9332 193.825 102.41 189.524 105.34 187.818C106.224 187.29 107.216 186.969 108.241 186.878C109.267 186.787 110.299 186.929 111.262 187.293C112.225 187.657 113.093 188.234 113.802 188.981C114.511 189.728 115.041 190.625 115.354 191.606V191.7C115.812 192.838 115.838 194.103 115.427 195.258Z" fill="#007BFF" stroke="#263238" stroke-linecap="round" stroke-linejoin="round"/>
<path d="M74.7438 195.363L74.2625 195.195" stroke="#263238" stroke-linecap="round" stroke-linejoin="round"/>
<path d="M83.6695 262.426C83.6746 262.468 83.6746 262.51 83.6695 262.551C83.627 262.652 83.5624 262.743 83.4803 262.816C83.3983 262.888 83.3009 262.942 83.1955 262.972C83.09 263.002 82.9791 263.008 82.871 262.99C82.7629 262.971 82.6603 262.929 82.5708 262.865C82.0895 262.593 81.3465 260.846 81.3465 260.846L80.5199 259.988L79.9758 259.412C80.0595 259.621 80.7187 261.222 80.3734 261.965C80.3558 262.016 80.3272 262.063 80.2897 262.101C80.0585 262.41 79.7584 262.661 79.4132 262.834C79.0681 263.006 78.6874 263.096 78.3015 263.095C77.8516 263.095 76.5331 263.252 75.3821 263.326H75.2565C74.908 263.345 74.5587 263.345 74.2102 263.326C73.2811 263.206 72.3849 262.904 71.5732 262.436C69.7325 262.166 67.9188 261.735 66.1529 261.149L65.839 260.982L65.5565 260.814C65.3707 260.702 65.1987 260.569 65.0438 260.417C64.4061 259.885 63.8646 259.248 63.4428 258.533C63.4428 258.533 59.1945 258.355 53.4916 257.916C51.3988 257.759 49.1386 257.56 46.7947 257.33C43.1951 256.964 40.2234 256.985 37.8899 256.66H37.7225C37.2621 256.597 36.8331 256.514 36.425 256.42C35.4291 256.225 34.5082 255.754 33.7679 255.059C33.0276 254.365 32.4979 253.477 32.2394 252.496C32.1024 252.031 31.9907 251.56 31.9046 251.083L33.7253 247.944C34.6743 247.183 35.7326 246.569 36.8645 246.123C38.6207 245.388 40.5598 245.209 42.4208 245.61C42.8066 245.706 43.1872 245.821 43.5614 245.956C44.3776 246.27 45.267 246.636 46.2192 247.002L46.7947 247.243L47.3807 247.494L48.1969 247.85C52.8533 249.775 58.4097 252.255 62.1243 253.301C63.24 253.593 64.3772 253.796 65.5251 253.908L66.5715 253.992C70.6001 254.254 74.5764 253.772 75.6332 253.835C76.6901 253.898 79.2747 256.357 80.928 257.874C81.3779 258.293 81.7756 258.638 82.0476 258.847L82.1732 258.952L82.2674 259.036C82.8667 259.65 83.2864 260.418 83.4812 261.254C83.5635 261.534 83.6196 261.821 83.6486 262.112C83.6676 262.215 83.6746 262.321 83.6695 262.426Z" fill="white" stroke="#263238" stroke-linecap="round" stroke-linejoin="round"/>
<path d="M83.6695 262.426C83.6746 262.468 83.6746 262.51 83.6695 262.551C83.626 262.652 83.5606 262.741 83.4781 262.813C83.3956 262.884 83.298 262.937 83.1927 262.966C83.0873 262.995 82.9768 263 82.8692 262.981C82.7616 262.962 82.6597 262.919 82.5708 262.855C82.0534 262.254 81.6397 261.572 81.3466 260.835L80.5199 259.988L79.9758 259.423C80.049 259.59 80.7292 261.223 80.3839 261.976C80.3663 262.027 80.3377 262.073 80.3002 262.112C80.1842 262.266 80.0507 262.407 79.9025 262.531C79.4513 262.893 78.8908 263.092 78.312 263.096C77.8516 263.096 76.5436 263.242 75.4031 263.326H75.2566C74.908 263.345 74.5587 263.345 74.2102 263.326C73.2868 263.202 72.3954 262.904 71.5837 262.447C69.743 262.171 67.9295 261.737 66.1634 261.149L65.86 261.003L65.5775 260.835C65.3965 260.716 65.2251 260.583 65.0647 260.438C64.4177 259.902 63.8689 259.257 63.4428 258.533C63.4428 258.533 59.32 258.355 53.7323 257.926C51.6395 257.769 49.2224 257.56 46.7948 257.32C43.4882 256.995 40.7571 256.901 38.5492 256.556L37.869 256.43L37.0843 256.252C36.9033 254.97 37.0362 253.663 37.4714 252.443C37.877 251.414 38.5061 250.488 39.3131 249.732C40.1202 248.975 41.0852 248.408 42.1383 248.069C43.4454 247.589 44.7845 247.201 46.146 246.908L46.711 247.149L47.297 247.4L48.1132 247.756C52.8534 249.796 58.3469 252.265 62.072 253.28C63.1869 253.574 64.3245 253.774 65.4728 253.877L66.5192 253.961C70.5478 254.233 74.5241 253.751 75.5809 253.814C76.6378 253.877 79.2119 256.325 80.8129 257.843C81.1761 258.19 81.5568 258.518 81.9535 258.826L82.079 258.92L82.1732 259.004C82.7839 259.611 83.2056 260.381 83.387 261.223C83.4694 261.503 83.5254 261.79 83.5544 262.081C83.608 262.19 83.6467 262.306 83.6695 262.426Z" fill="white" stroke="#263238" stroke-linecap="round" stroke-linejoin="round"/>
<path d="M71.1442 259.643C71.1442 259.643 73.5195 260.877 74.4613 261.306C75.403 261.735 75.3193 263.462 75.3193 263.462" fill="white"/>
<path d="M71.1442 259.643C71.1442 259.643 73.5195 260.877 74.4613 261.306C75.403 261.735 75.3193 263.462 75.3193 263.462" stroke="#263238" stroke-linecap="round" stroke-linejoin="round"/>
<path d="M73.687 257.968C75.1813 259.035 76.6202 260.177 77.9981 261.39C78.1994 261.626 78.3306 261.914 78.3768 262.221C78.4231 262.528 78.3825 262.842 78.2597 263.127" fill="white"/>
<path d="M73.687 257.968C75.1813 259.035 76.6202 260.177 77.9981 261.39C78.1994 261.626 78.3306 261.914 78.3768 262.221C78.4231 262.528 78.3825 262.842 78.2597 263.127" stroke="#263238" stroke-linecap="round" stroke-linejoin="round"/>
<path d="M79.9444 259.402C78.7063 258.075 77.3964 256.818 76.0204 255.635Z" fill="white"/>
<path d="M79.9444 259.402C78.7063 258.075 77.3964 256.818 76.0204 255.635" stroke="#263238" stroke-linecap="round" stroke-linejoin="round"/>
<path d="M74.7334 195.384C72.8394 199.37 69.0828 204.801 63.0347 204.33C56.6308 203.786 53.0312 199.276 51.3675 196.42C53.6695 195.541 56.003 194.641 57.9179 193.887C57.9179 191.941 57.8551 189.608 57.6458 187.295C57.6458 186.793 57.5412 186.249 57.4888 185.778C57.4365 185.307 57.3737 184.972 57.311 184.585H69.4805C69.4805 184.585 69.4072 185.066 69.3131 185.872C69.2398 186.594 69.1456 187.557 69.0724 188.645C68.9782 190.089 68.9154 191.784 68.9573 193.385C69.5433 193.584 70.1397 193.804 70.7361 194.034L71.8872 194.431C72.3476 194.599 72.7975 194.745 73.2789 194.902L74.3253 195.216C74.4647 195.263 74.601 195.319 74.7334 195.384Z" fill="white" stroke="#263238" stroke-linecap="round" stroke-linejoin="round"/>
<path d="M57.4889 185.736C57.4889 185.736 59.7595 191.637 63.0557 192.642C66.3518 193.647 69.334 185.872 69.334 185.872C69.334 185.872 64.688 190.832 62.9615 190.057C61.2349 189.283 57.5098 185.778 57.5098 185.778" fill="#263238"/>
<path d="M55.5321 153.141C52.457 155.909 50.0187 159.311 48.3853 163.113C46.8889 166.252 45.6228 169.862 46.7738 173.148C47.4626 174.779 48.4371 176.275 49.6514 177.564C51.9116 180.274 55.0822 187.839 57.3424 190.549C57.4889 185.726 53.4498 177.93 53.8788 173.88C54.3985 170.752 55.4271 167.73 56.9238 164.934C58.446 161.267 60.4368 157.813 62.8464 154.658C64.2172 153.005 68.6225 150.065 64.1753 149.709C61.2245 149.468 57.7609 151.31 55.5321 153.141Z" fill="#263238" stroke="#263238" stroke-linecap="round" stroke-linejoin="round"/>
<path d="M52.6859 169.59C52.6859 169.59 51.1268 166.566 49.484 169.433C48.3015 171.526 50.0072 174.822 50.7396 176.046C50.9827 176.395 51.3119 176.675 51.6952 176.858C52.0785 177.041 52.5027 177.122 52.9266 177.093L52.6859 169.59Z" fill="white" stroke="#263238" stroke-linecap="round" stroke-linejoin="round"/>
<path d="M73.1742 180.514C72.1743 182.491 70.8716 184.298 69.3131 185.872L68.3713 186.845C66.425 188.77 64.3218 190.298 62.9405 189.984C61.7372 189.744 60.1676 188.509 58.6294 186.929C58.2422 186.542 57.8656 186.123 57.4889 185.705C55.8141 183.872 54.3762 181.837 53.2091 179.646C52.8849 178.824 52.6771 177.961 52.5917 177.082C52.3277 174.461 52.2368 171.826 52.3197 169.193C52.3197 168.261 52.3197 167.518 52.3197 167.1C52.3197 165.279 59.1421 158.948 59.1421 158.948C59.326 158.881 59.5236 158.859 59.7177 158.886C60.8911 159.099 62.022 159.502 63.0661 160.078C67.1994 162.088 72.965 166.074 73.3835 167.592C74.0218 169.799 73.7811 178.547 73.1742 180.514Z" fill="white" stroke="#263238" stroke-linecap="round" stroke-linejoin="round"/>
<path d="M59.6235 172.122C59.6235 172.855 59.3514 173.451 59.048 173.451C58.7445 173.451 58.4411 172.876 58.4411 172.122C58.4411 171.369 58.7131 170.772 59.048 170.772C59.3828 170.772 59.6235 171.39 59.6235 172.122Z" fill="#263238"/>
<path d="M67.4191 170.783C67.7539 170.783 68.026 171.379 68.026 172.122C68.026 172.865 67.7539 173.451 67.4191 173.451C67.0843 173.451 66.8122 172.855 66.8122 172.122C66.8122 171.39 67.0843 170.783 67.4191 170.783Z" fill="#263238"/>
<path d="M55.7309 168.826C55.7309 168.826 56.7773 166.734 60.4815 167.372" stroke="#263238" stroke-linecap="round" stroke-linejoin="round"/>
<path d="M70.8617 168.826C70.8617 168.826 69.8153 166.734 66.1111 167.372" stroke="#263238" stroke-linecap="round" stroke-linejoin="round"/>
<path d="M64.0079 177.239C64.3842 177.216 64.743 177.072 65.0313 176.829C65.3196 176.586 65.522 176.256 65.6088 175.889C65.6088 175.889 63.5788 172.75 64.1962 169.674" stroke="#263238" stroke-linecap="round" stroke-linejoin="round"/>
<path d="M51.3675 162.265C50.5244 163.409 49.887 164.691 49.4839 166.053" stroke="white" stroke-linecap="round" stroke-linejoin="round"/>
<path d="M60.1153 153.894C60.1153 153.894 58.9538 155.82 53.837 159.744C53.5072 159.982 53.1927 160.24 52.8952 160.518" stroke="white" stroke-linecap="round" stroke-linejoin="round"/>
<path d="M43.7079 215.244C43.0103 225.192 42.3127 235.146 41.6151 245.108V244.344" fill="#263238"/>
<path d="M43.7079 215.244C43.0103 225.192 42.3127 235.146 41.6151 245.108V244.344" stroke="#263238" stroke-linecap="round" stroke-linejoin="round"/>
<path d="M109.808 182.398C110.754 182.028 111.776 181.896 112.785 182.013C113.794 182.13 114.758 182.492 115.595 183.068C117.264 184.25 118.478 185.966 119.038 187.933C119.705 189.892 119.638 192.026 118.849 193.94C118.441 194.883 117.785 195.697 116.95 196.296C116.115 196.895 115.133 197.256 114.109 197.34C112.583 197.321 111.108 196.786 109.923 195.823C106.01 192.893 104.053 184.878 109.808 182.398Z" fill="white" stroke="#263238" stroke-linecap="round" stroke-linejoin="round"/>
<path d="M118.472 148.987C118.472 149.112 118.472 149.939 118.546 150.085C118.912 151.697 119.686 155.725 117.73 156.542C118.472 159.189 120.293 176.486 120.053 185.307C119.99 187.944 119.529 191.072 117.164 192.203C113.178 194.097 109.39 189.482 109.84 185.872C110.541 180.943 110.3 175.921 110.886 170.94C111.524 165.771 112.696 160.476 111.409 155.422C111.095 155.077 109.086 151.09 108.427 149.991C108.131 149.522 107.899 149.015 107.736 148.484C107.479 146.679 107.353 144.857 107.36 143.033C107.956 141.903 108.731 142.949 109.139 143.692C109.471 144.598 109.586 145.569 109.474 146.528C109.435 146.762 109.468 147.003 109.568 147.218C109.655 147.341 109.774 147.439 109.912 147.502C110.05 147.564 110.202 147.589 110.352 147.574C111.64 147.386 111.587 146.308 111.566 145.481C111.566 142.708 111.566 139.935 111.566 137.183C111.566 136.723 111.713 135.478 112.152 135.436C112.592 135.394 113.251 135.75 113.314 137.225C113.387 138.889 113.387 144.016 113.387 144.016C113.428 144.058 113.48 144.089 113.537 144.106C113.594 144.122 113.654 144.124 113.711 144.11C113.816 144.11 113.858 143.922 113.9 143.817C114.517 141.243 115.145 138.669 115.762 136.095C115.836 135.792 116.285 135.164 116.61 135.164C117.384 135.164 117.405 136.064 117.447 136.325C117.719 137.707 115.783 143.399 115.459 144.696C115.459 144.927 115.459 145.272 115.7 145.209L118.734 139.088C118.875 138.73 119.096 138.41 119.381 138.152C119.666 137.894 120.007 137.706 120.377 137.602C120.428 137.586 120.483 137.586 120.534 137.602C120.588 137.634 120.632 137.681 120.659 137.738C120.952 138.261 120.659 138.983 120.492 139.559C120.325 140.134 118.054 144.362 117.248 146.067C117.133 146.308 116.945 146.852 117.175 147.114C117.405 147.375 117.824 146.873 117.991 146.528C118.504 145.481 118.985 144.498 119.456 143.472C119.603 143.169 119.822 142.74 120.168 142.813C122.208 143.252 119.31 147.532 118.472 148.987Z" fill="white" stroke="#263238" stroke-linecap="round" stroke-linejoin="round"/>
<path d="M112.843 148.087C113.896 148.921 114.811 149.917 115.553 151.038C115.919 151.601 116.164 152.234 116.272 152.897C116.38 153.56 116.349 154.238 116.181 154.888C116.13 155.058 116.064 155.223 115.982 155.38" fill="white"/>
<path d="M112.843 148.087C113.896 148.921 114.811 149.917 115.553 151.038C115.919 151.601 116.164 152.234 116.272 152.897C116.38 153.56 116.349 154.238 116.181 154.888C116.13 155.058 116.064 155.223 115.982 155.38" stroke="#263238" stroke-linecap="round" stroke-linejoin="round"/>
<path d="M83.3661 213.455C84.4734 215.688 85.2187 218.082 85.574 220.549C85.8774 223.019 85.9716 224.955 84.2869 231.892" stroke="#263238" stroke-linecap="round" stroke-linejoin="round"/>
<path d="M59.7491 157.379C59.6058 157.807 59.5699 158.263 59.6444 158.708C59.8429 159.268 60.2081 159.753 60.6908 160.099C64.0353 163.03 67.7763 165.475 71.8035 167.361C72.3086 167.493 72.7464 167.808 73.0309 168.246C73.3155 168.683 73.4263 169.211 73.3417 169.726V177.815C73.3931 178.649 73.3119 179.486 73.101 180.295C72.515 182.178 71.2175 183.696 70.2757 185.433C69.3184 187.08 68.8332 188.959 68.8736 190.863C68.612 188.865 75.6019 184.993 77.4958 177.124C77.7574 176.015 83.1987 169.412 79.9339 161.659C76.7948 154.219 71.8558 151.017 70.192 150.63C69.0627 150.3 67.871 150.243 66.7155 150.465C65.56 150.687 64.474 151.181 63.5475 151.906C61.719 153.268 60.3852 155.19 59.7491 157.379Z" fill="#263238" stroke="#263238" stroke-linecap="round" stroke-linejoin="round"/>
<path d="M66.6029 180.054C66.0065 180.18 65.3996 180.295 64.7927 180.368C62.6999 180.63 60.4606 180.305 59.0898 178.778C59.1945 180.148 60.1362 185.328 62.951 185.474C65.7658 185.621 66.6029 180.054 66.6029 180.054Z" stroke="#263238" stroke-linecap="round" stroke-linejoin="round"/>
<path d="M63.8823 154.219C65.0892 156.959 67.0122 159.323 69.4491 161.062C71.2175 162.328 73.237 163.239 74.8589 164.683C76.9517 166.598 78.3225 169.632 77.5168 172.384" stroke="white" stroke-linecap="round" stroke-linejoin="round"/>
<path d="M85.7518 196.493C83.7359 198.111 82.4084 200.433 82.0372 202.991C81.6763 205.201 81.9484 207.469 82.822 209.531" stroke="#263238" stroke-linecap="round" stroke-linejoin="round"/>
<path d="M46.7738 213.758C46.6064 216.5 44.9008 218.875 43.2475 221.083Z" fill="#263238"/>
<path d="M46.7738 213.758C46.6064 216.5 44.9008 218.875 43.2475 221.083" stroke="#263238" stroke-linecap="round" stroke-linejoin="round"/>
<path d="M42.6929 234.718C43.524 236.109 44.6364 237.312 45.959 238.249C47.2815 239.186 48.785 239.836 50.3734 240.159" stroke="#263238" stroke-linecap="round" stroke-linejoin="round"/>
<path d="M82.7278 236.35C82.7278 236.35 79.913 240.535 70.349 241.414" stroke="#263238" stroke-linecap="round" stroke-linejoin="round"/>
<path d="M362.899 199.674C362.899 199.674 326.432 210.975 319.568 202.049L320.499 156.521H326.034L332.543 188.593L362.428 183.12C362.428 183.12 366.258 194.986 362.899 199.674Z" fill="white"/>
<mask id="mask0_42_365" style="mask-type:luminance" maskUnits="userSpaceOnUse" x="319" y="156" width="46" height="50">
<path d="M362.899 199.674C362.899 199.674 326.432 210.975 319.568 202.049L320.499 156.521H326.034L332.543 188.593L362.428 183.12C362.428 183.12 366.258 194.986 362.899 199.674Z" fill="white"/>
</mask>
<g mask="url(#mask0_42_365)">
<path d="M347.538 201.264C345.447 202.096 343.451 203.148 341.584 204.404C344.053 205.188 346.69 204.194 349.16 203.41C352.421 202.408 355.745 201.625 359.111 201.066C359.268 200.134 358.064 198.01 357.594 197.183C356.735 195.739 356.547 195.614 355.103 196.325C352.477 197.644 350.237 199.936 347.538 201.264Z" fill="#007BFF"/>
</g>
<path d="M362.899 199.674C362.899 199.674 326.432 210.975 319.568 202.049L320.499 156.521H326.034L332.543 188.593L362.428 183.12C362.428 183.12 366.258 194.986 362.899 199.674Z" stroke="#263238" stroke-linecap="round" stroke-linejoin="round"/>
<path d="M359.32 200.867L365.724 240.295C365.557 265.848 377.747 262.007 386.212 261.934C395.996 261.85 410.844 252.15 403.561 237.051L406.366 182.398L389.32 181.101C383.701 180.661 360.68 181.383 358.849 184.323C354.099 191.952 359.32 200.867 359.32 200.867Z" fill="white"/>
<mask id="mask1_42_365" style="mask-type:luminance" maskUnits="userSpaceOnUse" x="356" y="180" width="51" height="83">
<path d="M359.32 200.867L365.724 240.295C365.557 265.848 377.747 262.007 386.212 261.934C395.996 261.85 410.844 252.15 403.561 237.051L406.366 182.398L389.32 181.101C383.701 180.661 360.68 181.383 358.849 184.323C354.099 191.952 359.32 200.867 359.32 200.867Z" fill="white"/>
</mask>
<g mask="url(#mask1_42_365)">
<path d="M360.325 204.121C364.128 218.509 373.249 230.917 385.846 238.84C384.482 238.625 383.15 238.242 381.88 237.7C380.603 237.149 379.171 237.072 377.841 237.48C377.52 237.596 377.225 237.774 376.973 238.004C376.72 238.234 376.516 238.511 376.371 238.82C376.226 239.129 376.144 239.464 376.129 239.805C376.113 240.146 376.165 240.487 376.282 240.808C376.587 241.298 377.003 241.71 377.496 242.011C379.573 243.471 381.845 244.634 384.245 245.464C382.14 245.248 380.014 245.411 377.967 245.945C377.59 247.766 379.62 249.084 381.221 249.974C383.775 251.48 385.963 253.535 387.625 255.991C382.006 256.003 376.393 256.324 370.809 256.953C370.073 257.118 369.304 257.045 368.612 256.744C367.888 256.205 367.4 255.406 367.252 254.515C366.007 250.162 365.284 245.677 365.096 241.153C364.991 238.61 365.096 236.046 364.761 233.525C364.492 231.536 364.121 229.563 363.652 227.613C362.027 220.065 360.782 212.457 359.916 204.791C359.529 204.822 360.325 204.121 360.325 204.121Z" fill="#007BFF"/>
<path d="M403.551 200.982C402.139 200.529 400.823 199.82 399.669 198.889C399.993 200.459 402.337 203.169 403.708 204.006C403.99 204.184 404.399 204.33 404.65 204.09C404.901 203.849 405.068 203.232 405.319 203.043L403.551 200.982Z" fill="#007BFF"/>
</g>
<path d="M359.32 200.867L365.724 240.295C365.557 265.848 377.747 262.007 386.212 261.934C395.996 261.85 410.844 252.15 403.561 237.051L406.366 182.398L389.32 181.101C383.701 180.661 360.68 181.383 358.849 184.323C354.099 191.952 359.32 200.867 359.32 200.867Z" stroke="#263238" stroke-linecap="round" stroke-linejoin="round"/>
<path d="M371.783 180.295C369.948 183.653 369.066 187.448 369.229 191.271C369.227 191.605 369.291 191.936 369.418 192.245C369.889 193.176 371.176 193.176 372.212 193.291C376.24 193.804 378.741 198.052 382.539 199.475C382.673 199.557 382.821 199.612 382.976 199.635C383.13 199.659 383.288 199.65 383.44 199.611C383.591 199.572 383.733 199.503 383.857 199.408C383.981 199.312 384.085 199.193 384.161 199.057C385.815 196.964 386.401 194.023 388.661 192.674C389.644 192.088 390.89 191.847 391.57 190.926C392.344 189.88 391.999 188.373 391.622 187.096C391.005 185.004 390.314 182.827 388.713 181.373C387.008 180.041 384.912 179.306 382.749 179.28C379.582 179.021 376.395 179.318 373.331 180.159C373.373 180.556 371.783 180.295 371.783 180.295Z" fill="#007BFF" stroke="#263238" stroke-linecap="round" stroke-linejoin="round"/>
<path d="M422.428 207.051C419.87 203.327 417.986 199.183 416.861 194.808C416.451 192.616 415.813 190.474 414.957 188.415C414.149 186.825 412.983 185.444 411.55 184.381C410.117 183.319 408.457 182.604 406.701 182.293C405.951 182.128 405.171 182.165 404.44 182.398C402.923 182.974 402.253 184.721 401.95 186.312C401.293 189.728 401.487 193.253 402.515 196.577C403.216 198.837 411.64 215.223 417.164 221.575C416.683 218.373 420.366 207.668 422.428 207.051Z" fill="white"/>
<mask id="mask2_42_365" style="mask-type:luminance" maskUnits="userSpaceOnUse" x="401" y="182" width="22" height="40">
<path d="M422.428 207.051C419.87 203.327 417.986 199.183 416.861 194.808C416.451 192.616 415.813 190.474 414.957 188.415C414.149 186.825 412.983 185.444 411.55 184.381C410.117 183.319 408.457 182.604 406.701 182.293C405.951 182.128 405.171 182.165 404.44 182.398C402.923 182.974 402.253 184.721 401.95 186.312C401.293 189.728 401.487 193.253 402.515 196.577C403.216 198.837 411.64 215.223 417.164 221.575C416.683 218.373 420.366 207.668 422.428 207.051Z" fill="white"/>
</mask>
<g mask="url(#mask2_42_365)">
<path d="M405.905 203.839L411.075 213.58C411.817 214.972 412.655 216.458 414.099 217.065C413.19 213.846 412.674 210.53 412.56 207.187C412.617 205.507 412.423 203.829 411.985 202.206C411.776 202.384 411.556 201.631 411.556 201.631C411.326 202.06 410.719 202.07 410.248 201.976C406.868 201.264 404.545 198.251 402.536 195.447C402.275 196.386 402.233 197.373 402.414 198.331C402.596 199.289 402.996 200.193 403.582 200.971C403.582 200.971 405.738 203.514 405.905 203.839Z" fill="#007BFF"/>
</g>
<path d="M422.428 207.051C419.87 203.327 417.986 199.183 416.861 194.808C416.451 192.616 415.813 190.474 414.957 188.415C414.149 186.825 412.983 185.444 411.55 184.381C410.117 183.319 408.457 182.604 406.701 182.293C405.951 182.128 405.171 182.165 404.44 182.398C402.923 182.974 402.253 184.721 401.95 186.312C401.293 189.728 401.487 193.253 402.515 196.577C403.216 198.837 411.64 215.223 417.164 221.575C416.683 218.373 420.366 207.668 422.428 207.051Z" stroke="#263238" stroke-linecap="round" stroke-linejoin="round"/>
<path d="M415.166 218.77C409.536 207.982 412.257 183.12 412.09 179.123L419.519 178.725C420.262 178.725 423.704 199.925 426.048 208.725C428.141 216.74 426.132 224.85 422.428 224.85C419.351 224.85 416.348 221.041 415.166 218.77Z" fill="white" stroke="#263238" stroke-linecap="round" stroke-linejoin="round"/>
<path d="M348.082 190.759C353.314 183.12 363.579 182.513 363.579 182.513" stroke="#263238" stroke-linecap="round" stroke-linejoin="round"/>
<path d="M327.897 195.038C329.479 193.584 330.72 191.798 331.528 189.806Z" fill="white"/>
<path d="M327.897 195.038C329.479 193.584 330.72 191.798 331.528 189.806" stroke="#263238" stroke-linecap="round" stroke-linejoin="round"/>
<path d="M366.77 231.139C369.753 236.026 389.069 241.247 396.77 240.127" stroke="#263238" stroke-linecap="round" stroke-linejoin="round"/>
<path d="M372.233 244.93C377.797 245.888 383.5 245.67 388.975 244.292" stroke="#263238" stroke-linecap="round" stroke-linejoin="round"/>
<path d="M397.859 197.518L401.542 202.51C402.044 203.19 402.745 203.954 403.572 203.765" stroke="#263238" stroke-linecap="round" stroke-linejoin="round"/>
<path d="M425.232 386.852C424.908 388.181 424.803 389.761 425.755 390.755C426.708 391.749 428.089 391.728 429.376 391.708L433.802 391.624C435.509 391.709 437.215 391.442 438.814 390.839C439.614 390.528 440.299 389.979 440.776 389.266C441.254 388.553 441.5 387.71 441.483 386.852C441.374 386.189 441.162 385.546 440.855 384.948C440.457 384.09 440.059 383.221 439.672 382.363C434.786 371.596 427.325 378.146 425.232 386.852Z" fill="white" stroke="#263238" stroke-linecap="round" stroke-linejoin="round"/>
<path d="M418.996 374.159C419.15 379.101 418.736 384.045 417.761 388.892C417.531 389.991 417.761 391.655 418.807 391.55C419.218 391.487 419.59 391.275 419.854 390.954C423.7 387.16 426.451 382.399 427.817 377.173C428.022 376.63 428.118 376.052 428.098 375.471C428.078 374.891 427.944 374.321 427.702 373.793C427.415 373.369 427.061 372.995 426.655 372.684C423.108 369.848 418.671 367.033 418.996 374.159Z" fill="white" stroke="#263238" stroke-linecap="round" stroke-linejoin="round"/>
<path d="M406.847 247.682C406.847 247.682 412.362 257.267 413.544 259.496C414.726 261.725 439.704 294.55 444.496 318.45C445.396 322.991 426.969 373.783 426.969 373.783L422.784 371.418C422.784 371.418 425.693 325.094 424.981 321.244C424.269 317.393 405.884 288.973 405.884 288.973C405.884 288.973 395.619 281.428 391.392 272.66L406.847 247.682Z" fill="#263238"/>
<path d="M407.444 271.697C407.444 271.697 404.304 278.687 404.304 279.691C404.304 280.696 421.57 335.255 426.645 347.874C429.854 356.001 432.682 364.316 435.131 372.82C435.131 372.82 437.098 375.405 435.612 378.052C434.126 380.699 428.214 382.436 427.001 380.072C425.787 377.707 413.826 365.422 408.783 353.2C403.739 340.978 396.645 320.553 392.606 312.946C387.315 303.225 382.619 293.193 378.542 282.904C373.467 269.918 368.277 255.917 368.277 255.917C370.385 256.107 372.503 256.167 374.618 256.095C379.599 255.925 384.531 255.052 389.268 253.5C400.297 249.796 405.068 242.701 405.068 242.701C405.068 242.701 407.799 250.099 408.511 251.533L407.444 271.697Z" fill="#263238"/>
<path d="M442.655 323.127C441.574 324.979 440.12 326.586 438.385 327.846" stroke="white" stroke-linecap="round" stroke-linejoin="round"/>
<path d="M444.004 320.082C443.847 320.592 443.658 321.092 443.439 321.578" stroke="white" stroke-linecap="round" stroke-linejoin="round"/>
<path d="M397.471 255.394C400.255 260.187 402.86 267.082 402.442 272.607C402.217 273.611 401.866 274.581 401.395 275.495" stroke="white" stroke-linecap="round" stroke-linejoin="round"/>
<path d="M380.625 260.72C380.928 263.389 381.336 267.825 380.75 270.441C380.255 273.117 378.72 275.487 376.481 277.034" stroke="white" stroke-linecap="round" stroke-linejoin="round"/>
<path d="M404.357 250.623C404.965 251.38 405.458 252.223 405.822 253.123C406.53 254.417 407.504 255.547 408.68 256.438C409.856 257.328 411.207 257.961 412.644 258.293" stroke="white" stroke-linecap="round" stroke-linejoin="round"/>
<path d="M395.473 261.317C399.167 269.395 401.992 277.494 407.726 291.222" stroke="white" stroke-linecap="round" stroke-linejoin="round"/>
<path d="M393.506 257.184C393.82 257.811 394.123 258.439 394.426 259.067" stroke="white" stroke-linecap="round" stroke-linejoin="round"/>
<path d="M424.249 318.983C425.942 322.246 428.095 325.248 430.642 327.899" stroke="white" stroke-linecap="round" stroke-linejoin="round"/>
<path d="M425.996 321.997C427.105 327.117 429.129 331.995 431.971 336.395" stroke="white" stroke-linecap="round" stroke-linejoin="round"/>
<path d="M399.983 322.258C391.831 304.867 383.136 287.612 372.452 261.317" stroke="white" stroke-linecap="round" stroke-linejoin="round"/>
<path d="M401.824 327.313C401.626 326.706 401.416 326.099 401.197 325.481" stroke="white" stroke-linecap="round" stroke-linejoin="round"/>
<path d="M430.004 380.783C427.911 378.052 412.655 356.716 408.867 347.047C406.345 340.602 404.44 336.05 402.588 329.625" stroke="white" stroke-linecap="round" stroke-linejoin="round"/>
<path d="M424.249 339.723L431.5 361.038" stroke="white" stroke-linecap="round" stroke-linejoin="round"/>
<path d="M419.362 178.736L417.164 178.914C414.38 179.408 411.52 179.276 408.793 178.526C407.046 178.097 402.996 176.842 402.515 176.758C401.312 176.501 400.097 176.305 398.874 176.172C395.18 175.952 397.053 174.571 398.591 174.634C400.621 174.728 401.301 174.686 402.86 174.801C402.672 174.697 402.096 174.582 402.086 174.132C402.086 173.033 403.53 173.085 403.53 173.085C403.53 173.085 401.95 172.416 402.17 171.589C402.389 170.762 403.446 170.542 404.116 170.605C404.116 170.605 403.227 170.176 403.268 169.716C403.457 167.937 407.109 167.811 407.109 167.811C406.225 167.417 405.399 166.907 404.65 166.294C404.376 166 404.185 165.639 404.095 165.248C404.075 165.061 404.106 164.873 404.184 164.703C404.262 164.532 404.385 164.386 404.539 164.279C404.693 164.172 404.873 164.108 405.06 164.095C405.247 164.081 405.434 164.118 405.602 164.201C406.547 164.83 407.458 165.508 408.333 166.231C409.463 167.037 410.771 167.55 411.964 168.272C413.126 169.267 414.064 170.497 414.716 171.882C414.904 172.175 419.362 178.736 419.362 178.736Z" fill="white" stroke="#263238" stroke-linecap="round" stroke-linejoin="round"/>
<path d="M320.499 156.521V150.755C320.485 147.862 320.909 144.983 321.755 142.217C322.236 140.689 322.801 139.36 323.314 139.161C324.266 138.816 324.685 142.677 324.685 142.677C323.969 139.581 323.51 136.431 323.314 133.26C323.314 129.901 327.834 143.849 327.834 143.849L326.034 156.521H320.499Z" fill="white" stroke="#263238" stroke-linecap="round" stroke-linejoin="round"/>
<path d="M325.961 147.145C326.508 146.723 326.916 146.148 327.133 145.492Z" fill="white"/>
<path d="M325.961 147.145C326.508 146.723 326.916 146.148 327.133 145.492" stroke="#263238" stroke-linecap="round" stroke-linejoin="round"/>
<path d="M369.784 168.544C371.738 171.834 372.819 175.569 372.923 179.395C373.111 185.757 380.478 194.662 382.581 195.091C384.685 195.52 386.631 185.045 386.537 181.875C386.442 178.704 385.271 169.946 385.271 169.946C385.271 169.946 375.194 162.328 369.784 168.544Z" fill="white" stroke="#263238" stroke-linecap="round" stroke-linejoin="round"/>
<path d="M372.745 176.967C372.745 176.967 382.403 190.141 386.191 176.748C389.979 163.354 375.57 180.41 372.745 176.967Z" fill="#263238"/>
<path d="M389.048 167.497C388.535 175.314 384.967 179.709 380.855 180.483C377.098 181.174 371.605 177.344 368.863 171.662C368.654 171.526 365.316 169.214 364.521 168.649C364.105 168.358 363.766 167.971 363.533 167.521C363.3 167.071 363.179 166.571 363.181 166.064C363.208 165.578 363.38 165.11 363.674 164.722C363.969 164.334 364.373 164.044 364.835 163.887H364.929C365.4 163.785 365.89 163.821 366.341 163.992C365.651 161.324 365.086 158.614 364.657 155.883C364.855 149.604 366.938 144.477 373.635 143.975C380.332 143.472 385.93 147.218 386.191 149.918C386.38 152.011 387.06 157.546 387.667 163.27C387.834 164.756 389.163 165.74 389.048 167.497Z" fill="white" stroke="#263238" stroke-linecap="round" stroke-linejoin="round"/>
<path d="M386.191 158.457C386.191 158.457 381.88 156.479 382.613 162.904C382.759 164.17 385.114 166.043 385.114 166.043C385.114 166.043 384.507 167.937 383.387 167.937" fill="white"/>
<path d="M386.191 158.457C386.191 158.457 381.88 156.479 382.613 162.904C382.759 164.17 385.114 166.043 385.114 166.043C385.114 166.043 384.507 167.937 383.387 167.937" stroke="#263238" stroke-linecap="round" stroke-linejoin="round"/>
<path d="M377.862 160.654C377.862 160.654 375.665 159.315 374.158 160.141C373.372 160.483 372.703 161.047 372.233 161.763" fill="white"/>
<path d="M377.862 160.654C377.862 160.654 375.665 159.315 374.158 160.141C373.372 160.483 372.703 161.047 372.233 161.763" stroke="#263238" stroke-linecap="round" stroke-linejoin="round"/>
<path d="M376.606 164.358C376.774 165.132 376.606 165.823 376.156 165.917C375.707 166.011 375.267 165.446 375.11 164.672C374.953 163.898 375.11 163.207 375.571 163.113C376.031 163.019 376.449 163.573 376.606 164.358Z" fill="#263238"/>
<path d="M385.103 162.098C385.27 162.872 385.103 163.563 384.653 163.657C384.203 163.751 383.764 163.186 383.607 162.422C383.45 161.659 383.607 160.947 384.057 160.863C384.507 160.78 384.946 161.334 385.103 162.098Z" fill="#263238"/>
<path d="M364.154 147.773C363.389 148.523 362.858 149.479 362.627 150.525C362 152.737 361.819 155.052 362.093 157.335C362.368 159.618 363.094 161.824 364.228 163.825C364.925 163.739 365.632 163.767 366.32 163.908C367.053 164.097 367.995 165.352 368.34 166.001C368.643 166.693 368.816 167.434 368.853 168.188C368.685 166.2 368.528 164.222 368.361 162.234C368.249 161.439 368.284 160.63 368.465 159.848C368.978 158.216 368.413 154.365 368.56 150.923C372.902 156.228 379.212 155.286 381.305 155.108C384.444 154.847 387.123 151.634 386.955 149.343C386.788 147.051 386.17 141.149 375.822 140.542C373.542 140.3 371.243 140.779 369.25 141.913C368.619 142.329 368.082 142.875 367.676 143.513C367.271 144.152 367.005 144.869 366.896 145.617C366.749 146.58 367.116 146.664 366.383 147.135C365.651 147.606 364.876 147.156 364.154 147.773Z" fill="#263238" stroke="#263238" stroke-linecap="round" stroke-linejoin="round"/>
<path d="M377.862 171.62C377.862 171.62 379.4 173.315 382.613 172.196Z" fill="white"/>
<path d="M377.862 171.62C377.862 171.62 379.4 173.315 382.613 172.196" stroke="#263238" stroke-linecap="round" stroke-linejoin="round"/>
</svg>
