<svg width="504" height="113" viewBox="0 0 504 113" fill="none" xmlns="http://www.w3.org/2000/svg">
<path d="M16.2789 57.2756L0.818746 42.5211L16.2789 27.8307H23.6561L8.13185 42.5211L23.6561 57.2756H16.2789ZM126.253 20.5176C126.723 23.2975 126.317 27.51 125.034 33.1552C123.794 38.8004 121.998 44.7236 119.646 50.9247C117.336 57.1259 114.364 63.2202 110.729 69.2075C107.094 75.1948 103.373 79.7067 99.5666 82.7432C96.573 85.1381 94.0497 85.8224 91.9969 84.796C90.8422 84.24 89.9014 83.2136 89.1743 81.7168C88.4901 80.2627 87.9983 78.2313 87.6989 75.6225C87.3995 73.0565 87.2071 70.5333 87.1215 68.0528C87.0788 65.5723 87.1002 62.3434 87.1857 58.3661C87.2712 51.0103 87.0788 46.7764 86.6083 45.6644C86.0096 46.2204 85.1543 47.4606 84.0423 49.3851C74.762 65.8931 67.5344 77.9105 62.3596 85.4375C59.8364 89.0726 57.8264 91.6172 56.3295 93.0713C54.8755 94.5254 53.6994 95.2524 52.8013 95.2524C52.5019 95.2524 52.2026 95.1883 51.9032 95.06C51.4755 94.8461 51.1334 94.5468 50.8768 94.1619C50.663 93.8197 50.5347 93.1141 50.4919 92.0449C50.4064 91.0185 50.5133 89.6714 50.8126 88.0035C51.112 86.3356 51.6466 84.0048 52.4164 81.0111C53.229 78.0602 54.2767 74.532 55.5597 70.4264C59.1094 59.3498 64.2628 45.0016 71.0199 27.3817C71.9608 24.944 72.8589 22.6987 73.7142 20.6459C74.5695 18.5931 75.3179 16.8611 75.9594 15.4498C76.6009 13.9957 77.2211 12.7127 77.8198 11.6008C78.4185 10.4461 78.9103 9.52661 79.2952 8.84235C79.7229 8.11531 80.1292 7.51658 80.5141 7.04615C80.9418 6.53295 81.2625 6.16943 81.4763 5.9556C81.7329 5.74176 81.9895 5.59208 82.2461 5.50655C82.5455 5.42101 82.738 5.37825 82.8235 5.37825C82.9518 5.37825 83.1229 5.39963 83.3367 5.44239C83.8927 5.5707 84.3203 5.93421 84.6197 6.53295C84.9191 7.08891 85.0687 7.83733 85.0687 8.7782C85.1115 9.6763 85.0901 10.7455 85.0046 11.9857C85.0046 12.3278 84.8763 12.6058 84.6197 12.8196C84.3631 13.0335 84.0637 13.1404 83.7216 13.1404C83.3795 13.0976 83.1015 12.9479 82.8876 12.6913C82.6738 12.4347 82.5669 12.1354 82.5669 11.7932C82.6524 10.2964 82.6524 9.16309 82.5669 8.39329C80.5996 10.831 77.5204 17.4598 73.3293 28.2798C71.1482 34.0105 69.1168 39.3991 67.235 44.4456C65.3961 49.4921 63.8137 53.9184 62.4879 57.7246C61.1622 61.5309 59.9647 65.0591 58.8955 68.3094C57.8264 71.5597 56.9497 74.2967 56.2654 76.5206C55.6239 78.7872 55.0679 80.84 54.5975 82.679C54.1271 84.518 53.7635 85.9934 53.5069 87.1054C53.2931 88.2173 53.122 89.1795 52.9937 89.9921C52.9082 90.8474 52.8654 91.4462 52.8654 91.7883C52.9082 92.1732 52.951 92.4726 52.9937 92.6864C54.4906 91.9594 57.2276 88.6236 61.2049 82.679C66.2942 75.1521 73.201 63.6478 81.9254 48.1663C83.0801 46.1135 84.0637 44.7022 84.8763 43.9324C85.6889 43.1626 86.5014 42.8846 87.314 43.0984C88.4259 43.3978 89.1102 44.6167 89.3668 46.755C89.6234 48.8506 89.7089 52.7423 89.6234 58.4303C89.5379 60.6114 89.5165 63.0277 89.5592 65.6792C89.6448 68.3308 89.7517 70.8113 89.88 73.1207C90.0511 75.4728 90.3932 77.5256 90.9064 79.2791C91.4624 81.0325 92.1894 82.123 93.0875 82.5507C94.1994 83.1067 95.8459 82.5293 98.027 80.8187C101.619 77.9533 105.148 73.6339 108.612 67.8604C112.119 62.0868 115.005 56.2064 117.272 50.2191C119.581 44.189 121.356 38.4583 122.596 33.0269C123.837 27.5528 124.243 23.5113 123.815 20.9025C123.644 19.7906 123.345 19.1705 122.917 19.0422C122.319 18.8284 121.292 19.3843 119.838 20.7101C119.581 20.9239 119.282 21.0308 118.94 21.0308C118.598 20.9881 118.298 20.8384 118.042 20.5818C117.828 20.3252 117.721 20.0258 117.721 19.6837C117.764 19.3416 117.914 19.0636 118.17 18.8497C120.394 16.8825 122.254 16.1554 123.751 16.6686C125.077 17.1391 125.911 18.4221 126.253 20.5176ZM151.026 51.6945C151.369 51.5662 151.689 51.5876 151.989 51.7587C152.288 51.887 152.481 52.1222 152.566 52.4643C152.694 52.7637 152.694 53.0631 152.566 53.3624C147.99 62.8139 143.906 67.5396 140.313 67.5396C140.1 67.5396 139.864 67.5182 139.608 67.4755C136.742 66.9195 134.968 63.0705 134.283 55.9284C132.188 58.751 130.327 61.0604 128.702 62.8566C127.248 64.3962 126.008 64.9308 124.982 64.4604C123.955 64.0755 123.463 62.9636 123.506 61.1246C123.506 59.585 123.848 57.746 124.533 55.6077C125.217 53.4694 126.222 51.3952 127.548 49.3851C128.873 47.3751 130.306 46.1135 131.846 45.6003C134.112 44.7877 136.208 45.5361 138.132 47.8455C138.346 48.1021 138.432 48.4015 138.389 48.7436C138.389 49.0858 138.261 49.3638 138.004 49.5776C137.747 49.7914 137.448 49.8983 137.106 49.8983C136.764 49.8556 136.486 49.7059 136.272 49.4493C134.775 47.6531 133.257 47.311 131.717 48.4229C129.964 49.6631 128.488 51.9084 127.291 55.1586C126.136 58.3661 125.687 60.6542 125.944 62.0227C126.2 61.8089 126.5 61.5309 126.842 61.1887C128.553 59.3498 130.648 56.7196 133.129 53.2983C133.685 52.5285 134.069 51.9939 134.283 51.6945C134.625 51.2669 135.075 51.1386 135.63 51.3096C136.186 51.4379 136.486 51.8015 136.529 52.4002C136.614 54.4958 136.785 56.3561 137.042 57.9812C137.298 59.6064 137.555 60.8466 137.812 61.7019C138.068 62.5145 138.368 63.1988 138.71 63.7547C139.052 64.3107 139.308 64.6742 139.479 64.8453C139.693 64.9736 139.907 65.0377 140.121 65.0377C140.72 65.166 141.468 64.8881 142.366 64.2038C143.307 63.4768 144.483 62.1082 145.894 60.0982C147.349 58.0454 148.824 55.458 150.321 52.336C150.492 51.9939 150.727 51.7801 151.026 51.6945ZM176.627 50.9889C176.969 50.9461 177.268 51.053 177.525 51.3096C177.782 51.5235 177.931 51.8015 177.974 52.1436C178.017 52.4857 177.91 52.7851 177.653 53.0417C169.356 62.707 164.609 68.288 163.412 69.7849C162.685 70.7257 161.979 71.6452 161.295 72.5433C161.894 74.981 161.936 77.3332 161.423 79.5998C160.91 81.8664 160.183 83.8123 159.242 85.4375C158.301 87.0626 157.189 88.3884 155.906 89.4148C154.709 90.4412 153.597 90.9544 152.571 90.9544C151.929 90.9544 151.394 90.7405 150.967 90.3129C148.7 88.1318 151.245 82.0375 158.601 72.0301C158.13 70.405 157.382 68.8226 156.355 67.283C154.217 64.0755 152.635 61.4026 151.608 59.2642C150.582 57.1259 150.111 55.18 150.197 53.4266C150.283 51.7159 150.732 50.1763 151.544 48.8078C152.4 47.4393 153.533 46.3273 154.944 45.472C156.142 44.745 157.403 44.3173 158.729 44.189C160.055 44.0607 161.274 44.2531 162.386 44.7663C162.685 44.9374 162.877 45.194 162.963 45.5361C163.091 45.8355 163.07 46.1349 162.899 46.4342C162.77 46.7336 162.535 46.9474 162.193 47.0757C161.894 47.1613 161.594 47.1399 161.295 47.0116C159.755 46.2846 158.066 46.477 156.227 47.5889C154.003 48.9147 152.827 50.9034 152.699 53.5549C152.613 54.9662 153.062 56.6555 154.046 58.6227C155.03 60.5472 156.484 62.9636 158.408 65.8717C159.221 67.1119 159.884 68.3736 160.397 69.6566C160.739 69.2289 161.103 68.7585 161.487 68.2453C162.685 66.7484 167.453 61.146 175.793 51.4379C176.007 51.1813 176.285 51.0317 176.627 50.9889ZM156.676 84.8601C158.558 81.9947 159.392 78.8514 159.178 75.4301C157.382 77.9961 155.928 80.2841 154.816 82.2941C153.747 84.3041 153.084 85.7368 152.827 86.5922C152.613 87.4903 152.549 88.1104 152.635 88.4525C153.02 88.4097 153.597 88.0676 154.367 87.4261C155.137 86.8274 155.906 85.972 156.676 84.8601ZM192.309 51.2455C192.651 51.16 192.972 51.2027 193.271 51.3738C193.571 51.5449 193.742 51.8015 193.784 52.1436C193.87 52.4857 193.827 52.8065 193.656 53.1058C192.459 54.9876 191.005 56.9548 189.294 59.0076C187.626 61.0177 185.723 62.8353 183.585 64.4604C181.489 66.0855 179.714 66.8981 178.26 66.8981C177.747 66.8981 177.298 66.8126 176.913 66.6415C174.048 65.4013 173.748 60.3762 176.015 51.5662C176.1 51.2241 176.293 50.9675 176.592 50.7964C176.892 50.6254 177.191 50.5826 177.49 50.6681C177.832 50.7537 178.089 50.9461 178.26 51.2455C178.431 51.5449 178.474 51.8442 178.388 52.1436C177.875 54.1964 177.49 56.014 177.234 57.5963C177.02 59.1359 176.913 60.312 176.913 61.1246C176.956 61.9372 177.041 62.6214 177.17 63.1774C177.341 63.6906 177.469 64.0113 177.555 64.1396C177.683 64.2252 177.79 64.2893 177.875 64.3321C178.987 64.8025 180.997 63.6906 183.905 60.9963C186.856 58.302 189.401 55.2228 191.539 51.7587C191.753 51.5021 192.01 51.331 192.309 51.2455ZM178.132 46.2418C176.892 46.1563 176.507 45.6431 176.977 44.7022C177.405 43.9324 177.961 43.4192 178.645 43.1626C179.714 42.8205 180.356 43.0984 180.57 43.9965C180.783 44.8519 180.463 45.4934 179.607 45.921C179.18 46.1349 178.688 46.2418 178.132 46.2418ZM203.723 49.0002C204.065 48.9575 204.365 49.043 204.621 49.2568C204.921 49.4707 205.092 49.7487 205.134 50.0908C205.177 50.4329 205.092 50.7323 204.878 50.9889C204.664 51.2455 204.386 51.3952 204.044 51.4379C200.922 51.8656 198.014 52.2077 195.32 52.4643C192.839 62.6856 190.53 72.971 188.391 83.3205C186.253 93.67 184.863 101.069 184.222 105.516C184.264 105.516 184.329 105.516 184.414 105.516C184.713 105.645 184.949 105.859 185.12 106.158C185.248 106.5 185.248 106.821 185.12 107.12C184.863 107.847 184.671 108.382 184.542 108.724C184.371 109.109 184.136 109.472 183.837 109.814C183.537 110.157 183.217 110.328 182.874 110.328C182.746 110.328 182.618 110.306 182.49 110.264C181.848 110.092 181.527 109.515 181.527 108.531C181.485 107.591 181.763 105.217 182.361 101.411C183.131 96.792 184.307 90.7619 185.889 83.3205C187.985 73.0993 190.273 62.878 192.754 52.6568C191.299 52.7851 189.589 52.9348 187.622 53.1058C187.579 53.1058 187.536 53.1058 187.493 53.1058C187.279 53.1058 187.087 53.0631 186.916 52.9775C186.745 52.8492 186.617 52.6996 186.531 52.5285C186.403 52.3574 186.317 52.165 186.274 51.9511C186.274 51.609 186.381 51.3096 186.595 51.053C186.809 50.7964 187.087 50.6468 187.429 50.604C189.824 50.4329 191.791 50.2832 193.331 50.1549C194.443 45.7072 195.469 41.6658 196.41 38.0306C196.795 36.5338 197.223 34.9942 197.693 33.4118C198.206 31.7867 198.869 29.8622 199.682 27.6383C200.494 25.3717 201.371 23.5113 202.312 22.0572C203.253 20.5604 204.151 19.7478 205.006 19.6195C205.733 19.4912 206.311 19.7478 206.738 20.3893C207.765 21.9289 207.23 25.3075 205.134 30.525C203.082 35.7426 200.302 41.1312 196.795 46.6908C196.752 46.7336 196.731 46.7764 196.731 46.8191C196.517 47.6317 196.26 48.6581 195.961 49.8983C198.27 49.6845 200.858 49.3851 203.723 49.0002ZM204.685 23.0195C202.804 25.8421 200.879 30.8886 198.912 38.1589C202.333 31.7439 204.258 26.6974 204.685 23.0195ZM288.607 81.2677C288.949 81.2249 289.248 81.3105 289.505 81.5243C289.804 81.7381 289.954 82.0161 289.954 82.3583C289.997 82.7004 289.911 83.0211 289.697 83.3205C287.431 86.1003 285.036 87.4903 282.512 87.4903C282.427 87.4903 282.341 87.4903 282.256 87.4903C281.358 87.4903 280.46 87.2978 279.562 86.9129C278.663 86.5708 277.723 85.9934 276.739 85.1809C275.798 84.4111 274.964 83.6626 274.237 82.9356C273.51 82.2086 272.591 81.1394 271.479 79.7281C270.409 78.3168 269.554 77.1835 268.913 76.3282C268.271 75.4728 267.33 74.1471 266.09 72.3509C264.294 69.8704 262.883 67.9459 261.856 66.5774C260.873 65.2088 259.525 63.5195 257.815 61.5095C256.104 59.4995 254.479 57.8316 252.939 56.5058C250.331 57.1473 247.765 57.4467 245.241 57.4039C240.024 78.7445 237.009 92.3015 236.196 98.075C236.324 97.7756 236.474 97.4335 236.645 97.0486C236.773 96.7492 236.987 96.5354 237.287 96.4071C237.629 96.2788 237.95 96.2788 238.249 96.4071C238.591 96.5782 238.805 96.8134 238.89 97.1128C239.019 97.4549 239.019 97.7756 238.89 98.075C238.463 99.0586 238.078 99.8498 237.736 100.449C237.436 101.047 237.137 101.582 236.838 102.052C236.538 102.523 236.239 102.865 235.94 103.079C235.683 103.293 235.405 103.399 235.106 103.399C234.935 103.399 234.763 103.357 234.592 103.271C234.207 103.143 233.93 102.908 233.758 102.566C233.587 102.266 233.502 101.582 233.502 100.513C233.502 99.4863 233.673 97.9895 234.015 96.0222C234.357 94.0549 234.87 91.382 235.555 88.0035C236.282 84.6249 237.223 80.4338 238.377 75.4301C239.532 70.4264 240.986 64.3535 242.739 57.2114C240.558 56.9548 238.826 56.3989 237.543 55.5435C236.26 54.6882 235.448 53.7046 235.106 52.5926C234.592 51.0958 234.977 49.8556 236.26 48.8719C238.099 47.4179 240.943 47.3751 244.792 48.7436C245.348 46.5625 245.883 44.3601 246.396 42.1362C250.074 27.1679 252.405 17.5026 253.388 13.1404C253.474 12.7983 253.645 12.5417 253.902 12.3706C254.201 12.1568 254.522 12.0926 254.864 12.1781C255.206 12.2637 255.463 12.4561 255.634 12.7555C255.805 13.0121 255.869 13.3115 255.826 13.6536C254.842 18.0586 252.512 27.7452 248.834 42.7135C248.021 45.8783 247.444 48.2304 247.102 49.77C248.171 50.2832 249.261 50.8606 250.373 51.5021C251.4 52.1436 252.447 52.892 253.517 53.7473C258.221 52.4216 262.818 50.0266 267.309 46.5625C271.799 43.0984 275.755 38.4583 279.177 32.642C281.914 28.0232 283.603 23.5968 284.244 19.3629C284.886 15.129 284.394 11.6863 282.769 9.03479C280.331 5.1858 275.691 3.49651 268.848 3.96694C265.47 4.18078 261.92 4.90781 258.2 6.14805C254.479 7.34551 250.993 8.86373 247.743 10.7027C244.536 12.5417 241.585 14.6586 238.89 17.0535C236.239 19.4485 234.207 21.8862 232.796 24.3666C230.059 29.1565 229.781 33.7112 231.962 38.0306C232.091 38.33 232.091 38.6507 231.962 38.9928C231.877 39.2922 231.684 39.5274 231.385 39.6985C231.086 39.8268 230.765 39.8482 230.423 39.7626C230.123 39.6343 229.888 39.4205 229.717 39.1211C227.151 33.9891 227.45 28.6647 230.615 23.1478C232.668 19.5554 235.747 16.1554 239.853 12.9479C244.001 9.74045 248.62 7.11029 253.709 5.0575C258.841 3.0047 263.845 1.80723 268.72 1.4651C276.546 0.951897 281.914 3.04746 284.822 7.7518C286.704 10.7882 287.324 14.6586 286.682 19.3629C286.083 24.0245 284.287 28.8785 281.294 33.925C277.274 40.7677 272.12 46.3273 265.833 50.604C262.583 52.8706 259.226 54.5813 255.762 55.736C257.173 57.0618 258.67 58.6869 260.252 60.6114C261.878 62.5359 263.161 64.161 264.101 65.4868C265.085 66.7698 266.411 68.5874 268.079 70.9396C269.447 72.8213 270.474 74.2326 271.158 75.1735C271.842 76.1571 272.783 77.3759 273.98 78.83C275.178 80.3268 276.162 81.4388 276.931 82.1658C277.744 82.8928 278.642 83.5343 279.626 84.0903C280.609 84.689 281.507 85.0098 282.32 85.0526C284.116 85.0953 285.955 83.9834 287.837 81.7168C288.051 81.4602 288.307 81.3105 288.607 81.2677ZM237.415 51.887C237.543 52.3147 237.843 52.7209 238.313 53.1058C238.784 53.4907 239.446 53.8543 240.302 54.1964C241.2 54.4958 242.205 54.7096 243.317 54.8379C243.616 53.6404 243.916 52.443 244.215 51.2455C242.461 50.5612 241.007 50.2191 239.853 50.2191C238.955 50.2191 238.249 50.4115 237.736 50.7964C237.394 51.0958 237.287 51.4593 237.415 51.887ZM245.819 54.902C247.315 54.902 248.834 54.7524 250.373 54.453C249.946 54.1536 249.518 53.8756 249.09 53.619C248.278 53.1486 247.401 52.6782 246.46 52.2077C246.161 53.448 245.947 54.3461 245.819 54.902ZM309.898 51.6945C310.24 51.5662 310.561 51.5876 310.86 51.7587C311.16 51.887 311.352 52.1222 311.438 52.4643C311.566 52.7637 311.566 53.0631 311.438 53.3624C306.862 62.8139 302.777 67.5396 299.185 67.5396C298.971 67.5396 298.736 67.5182 298.479 67.4755C295.614 66.9195 293.839 63.0705 293.155 55.9284C291.059 58.751 289.199 61.0604 287.574 62.8566C286.12 64.3962 284.879 64.9308 283.853 64.4604C282.827 64.0755 282.335 62.9636 282.378 61.1246C282.378 59.585 282.72 57.746 283.404 55.6077C284.088 53.4694 285.093 51.3952 286.419 49.3851C287.745 47.3751 289.178 46.1135 290.717 45.6003C292.984 44.7877 295.079 45.5361 297.004 47.8455C297.218 48.1021 297.303 48.4015 297.26 48.7436C297.26 49.0858 297.132 49.3638 296.876 49.5776C296.619 49.7914 296.32 49.8983 295.977 49.8983C295.635 49.8556 295.357 49.7059 295.143 49.4493C293.647 47.6531 292.128 47.311 290.589 48.4229C288.835 49.6631 287.36 51.9084 286.162 55.1586C285.008 58.3661 284.559 60.6542 284.815 62.0227C285.072 61.8089 285.371 61.5309 285.713 61.1887C287.424 59.3498 289.52 56.7196 292 53.2983C292.556 52.5285 292.941 51.9939 293.155 51.6945C293.497 51.2669 293.946 51.1386 294.502 51.3096C295.058 51.4379 295.357 51.8015 295.4 52.4002C295.486 54.4958 295.657 56.3561 295.913 57.9812C296.17 59.6064 296.426 60.8466 296.683 61.7019C296.94 62.5145 297.239 63.1988 297.581 63.7547C297.923 64.3107 298.18 64.6742 298.351 64.8453C298.565 64.9736 298.779 65.0377 298.992 65.0377C299.591 65.166 300.34 64.8881 301.238 64.2038C302.179 63.4768 303.355 62.1082 304.766 60.0982C306.22 58.0454 307.695 55.458 309.192 52.336C309.363 51.9939 309.599 51.7801 309.898 51.6945ZM343.132 51.3738C343.474 51.331 343.774 51.4166 344.03 51.6304C344.287 51.8442 344.415 52.1222 344.415 52.4643C344.458 52.8065 344.372 53.1058 344.159 53.3624C338.727 59.7347 334.429 62.3221 331.264 61.1246C328.998 60.2693 327.779 57.5536 327.608 52.9775C327.009 54.0895 326.068 55.9498 324.785 58.5586C324.058 60.141 323.566 61.146 323.31 61.5736C322.198 63.712 321 64.6101 319.717 64.2679C317.964 63.8403 317.109 61.3812 317.151 56.8907C317.151 56.0354 317.173 55.0303 317.216 53.8756C314.393 57.8957 311.506 62.7283 308.555 68.3736C308.042 69.3572 307.486 69.849 306.887 69.849C306.674 69.849 306.481 69.7849 306.31 69.6566C306.096 69.571 305.947 69.4855 305.861 69.4C305.733 69.3144 305.626 69.0792 305.54 68.6943C305.412 68.3094 305.391 67.8176 305.476 67.2189C305.519 66.6201 305.647 65.7434 305.861 64.5887C306.075 63.434 306.396 62.0441 306.823 60.4189C308.192 54.9448 309.838 50.048 311.763 45.7286C311.891 45.3865 312.105 45.1512 312.404 45.0229C312.746 44.8946 313.067 44.916 313.367 45.0871C313.709 45.2154 313.923 45.4506 314.008 45.7927C314.136 46.0921 314.136 46.3915 314.008 46.6908C311.87 51.5235 310.116 56.8907 308.748 62.7925C311.314 58.2592 313.965 54.0895 316.702 50.2832C317.301 49.4279 317.964 49.1285 318.691 49.3851C319.204 49.5562 319.504 49.9197 319.589 50.4757C319.675 50.9889 319.696 52.0367 319.653 53.619C319.611 54.9448 319.589 56.0354 319.589 56.8907C319.589 59.1573 319.824 60.7611 320.295 61.7019C320.551 61.4453 320.851 61.0177 321.193 60.4189C321.407 59.9913 321.877 59.029 322.604 57.5322C324.358 53.8543 325.619 51.4593 326.389 50.3474C327.159 49.1927 327.95 48.7009 328.763 48.8719C329.661 49.0858 330.11 50.0266 330.11 51.6945C330.067 55.8857 330.751 58.2592 332.163 58.8152C333.018 59.1146 334.322 58.7297 336.076 57.6605C337.829 56.5486 339.903 54.5813 342.298 51.7587C342.512 51.5021 342.79 51.3738 343.132 51.3738ZM379.408 51.2455C379.75 51.2455 380.028 51.3738 380.242 51.6304C380.456 51.887 380.541 52.1864 380.499 52.5285C380.499 52.8706 380.37 53.1486 380.114 53.3624C374.468 58.1951 369.422 62.707 364.974 66.8981C363.691 74.8099 360.954 83.0639 356.763 91.66C353.727 97.8184 349.963 102.843 345.473 106.735C341.025 110.627 337.197 112.573 333.99 112.573C333.947 112.573 333.904 112.573 333.861 112.573C331.894 112.53 330.568 111.739 329.884 110.199C328.986 108.189 329.521 105.26 331.488 101.411C333.412 97.6046 336.62 93.1141 341.11 87.9393C347.782 80.3268 354.945 72.9068 362.601 65.6792C363.413 60.4617 363.199 57.019 361.959 55.3511C361.446 54.6668 360.719 54.4102 359.778 54.5813C357.683 54.8807 355.459 55.8001 353.106 57.3397C352.807 57.5108 352.572 57.6391 352.401 57.7246C352.273 57.8102 352.08 57.9171 351.823 58.0454C351.567 58.1309 351.332 58.1523 351.118 58.1095C350.947 58.0668 350.754 57.9599 350.54 57.7888C350.327 57.575 350.177 57.3825 350.091 57.2114C350.006 57.0404 350.006 56.741 350.091 56.3133C350.22 55.8857 350.369 55.4794 350.54 55.0945C350.712 54.6668 351.032 53.9398 351.503 52.9134C351.973 51.8015 352.358 50.882 352.657 50.1549C353.342 48.6153 353.876 47.2254 354.261 45.9852C354.689 44.745 354.945 43.8041 355.031 43.1626C355.159 42.4783 355.223 41.901 355.223 41.4305C355.223 40.9601 355.181 40.6821 355.095 40.5966C355.052 40.4683 355.031 40.3828 355.031 40.34C354.903 40.2972 354.667 40.34 354.325 40.4683C352.957 40.9815 351.353 42.3714 349.514 44.638C347.718 46.9047 346.392 49.4065 345.537 52.1436C345.451 52.4857 345.259 52.7423 344.959 52.9134C344.66 53.0417 344.339 53.0631 343.997 52.9775C343.655 52.8492 343.398 52.6354 343.227 52.336C343.099 52.0367 343.078 51.7159 343.163 51.3738C344.104 48.4657 345.686 45.6003 347.91 42.7777C350.177 39.9123 352.294 38.2872 354.261 37.9023C355.416 37.6885 356.314 37.9878 356.955 38.8004C358.367 40.5966 357.683 44.7022 354.903 51.1172C354.603 51.8442 354.218 52.7637 353.748 53.8756C353.705 53.9184 353.684 53.9612 353.684 54.0039C353.641 54.0467 353.62 54.0895 353.62 54.1322C355.501 53.0631 357.426 52.4002 359.393 52.1436C361.36 51.8442 362.879 52.443 363.948 53.9398C365.274 55.6932 365.765 58.7297 365.423 63.0491C369.315 59.4995 373.677 55.6505 378.51 51.5021C378.766 51.2883 379.066 51.2027 379.408 51.2455ZM354.518 90.5695C357.896 83.684 360.334 76.7558 361.831 69.7849C355.202 76.1571 348.915 82.7645 342.971 89.6072C338.609 94.6109 335.572 98.802 333.861 102.181C332.151 105.559 331.573 107.89 332.129 109.173C332.386 109.772 332.985 110.071 333.926 110.071C335.08 110.114 336.513 109.708 338.224 108.852C339.892 107.997 341.666 106.778 343.548 105.196C345.43 103.656 347.354 101.603 349.322 99.0373C351.289 96.4713 353.021 93.6487 354.518 90.5695ZM403.241 51.6945C403.583 51.5662 403.904 51.5876 404.203 51.7587C404.503 51.887 404.695 52.1222 404.781 52.4643C404.909 52.7637 404.909 53.0631 404.781 53.3624C400.205 62.8139 396.121 67.5396 392.528 67.5396C392.314 67.5396 392.079 67.5182 391.823 67.4755C388.957 66.9195 387.182 63.0705 386.498 55.9284C384.403 58.751 382.542 61.0604 380.917 62.8566C379.463 64.3962 378.223 64.9308 377.196 64.4604C376.17 64.0755 375.678 62.9636 375.721 61.1246C375.721 59.585 376.063 57.746 376.747 55.6077C377.432 53.4694 378.437 51.3952 379.762 49.3851C381.088 47.3751 382.521 46.1135 384.06 45.6003C386.327 44.7877 388.423 45.5361 390.347 47.8455C390.561 48.1021 390.646 48.4015 390.604 48.7436C390.604 49.0858 390.475 49.3638 390.219 49.5776C389.962 49.7914 389.663 49.8983 389.321 49.8983C388.979 49.8556 388.701 49.7059 388.487 49.4493C386.99 47.6531 385.472 47.311 383.932 48.4229C382.179 49.6631 380.703 51.9084 379.506 55.1586C378.351 58.3661 377.902 60.6542 378.159 62.0227C378.415 61.8089 378.715 61.5309 379.057 61.1887C380.767 59.3498 382.863 56.7196 385.343 53.2983C385.899 52.5285 386.284 51.9939 386.498 51.6945C386.84 51.2669 387.289 51.1386 387.845 51.3096C388.401 51.4379 388.701 51.8015 388.743 52.4002C388.829 54.4958 389 56.3561 389.257 57.9812C389.513 59.6064 389.77 60.8466 390.026 61.7019C390.283 62.5145 390.582 63.1988 390.924 63.7547C391.267 64.3107 391.523 64.6742 391.694 64.8453C391.908 64.9736 392.122 65.0377 392.336 65.0377C392.934 65.166 393.683 64.8881 394.581 64.2038C395.522 63.4768 396.698 62.1082 398.109 60.0982C399.563 58.0454 401.039 55.458 402.536 52.336C402.707 51.9939 402.942 51.7801 403.241 51.6945ZM426.835 51.5662C427.177 51.4807 427.498 51.5235 427.797 51.6945C428.097 51.8656 428.289 52.1222 428.375 52.4643C428.46 52.7637 428.417 53.0631 428.246 53.3624C426.792 55.9284 425.531 57.9599 424.461 59.4567C423.392 60.9535 422.302 62.1296 421.19 62.9849C420.078 63.8403 418.987 64.2038 417.918 64.0755C415.78 63.8189 414.09 61.5095 412.85 57.1473C411.952 54.1964 411.182 52.7209 410.541 52.7209C410.413 52.6782 410.22 52.7423 409.963 52.9134C409.75 53.0417 409.386 53.4266 408.873 54.0681C408.36 54.6668 407.782 55.5008 407.141 56.5699C406.542 57.6391 405.73 59.2215 404.703 61.317C403.72 63.4126 402.65 65.8931 401.496 68.7585C401.282 69.2717 400.897 69.5283 400.341 69.5283C400.255 69.5283 400.17 69.5069 400.084 69.4641C399.357 69.293 399.037 68.844 399.122 68.117C399.55 64.6101 401.154 58.0882 403.933 48.5512C404.233 47.5676 404.447 46.8191 404.575 46.3059C404.703 45.9638 404.917 45.7286 405.216 45.6003C405.516 45.4292 405.815 45.3865 406.114 45.472C406.457 45.5575 406.713 45.75 406.884 46.0493C407.055 46.3487 407.077 46.6695 406.948 47.0116C406.863 47.311 406.649 48.0594 406.307 49.2568C405.366 52.5499 404.639 55.1159 404.126 56.9548C405.494 54.3888 406.692 52.614 407.718 51.6304C408.745 50.6468 409.728 50.1763 410.669 50.2191C411.781 50.2619 412.658 50.8392 413.299 51.9511C413.984 53.0631 414.625 54.5813 415.224 56.5058C416.165 59.7988 417.17 61.5095 418.239 61.6378C418.752 61.7233 419.372 61.4453 420.099 60.8038C420.869 60.1196 421.682 59.1573 422.537 57.9171C423.392 56.6341 424.034 55.6291 424.461 54.902C424.932 54.175 425.466 53.2555 426.065 52.1436C426.236 51.8442 426.493 51.6518 426.835 51.5662ZM471.231 5.5707L453.654 76.9055H447.88L465.393 5.5707H471.231ZM481.019 27.8307H488.396L503.921 42.5211L488.396 57.2756H481.019L496.543 42.5211L481.019 27.8307Z" fill="black"/>
</svg>
